<svg id="Layer_1" data-name="Layer 1" xmlns="http://www.w3.org/2000/svg" xmlns:xlink="http://www.w3.org/1999/xlink" viewBox="0 0 154.05 157.88"><defs><style>.cls-1{fill:none;}.cls-2{clip-path:url(#clip-path);}.cls-3{fill:#130c0e;}</style><clipPath id="clip-path" transform="translate(14.61 4.89)"><polygon class="cls-1" points="64.25 1.47 94.97 54.68 125.69 107.89 64.25 107.89 2.8 107.89 33.53 54.68 64.25 1.47"/></clipPath></defs><title>circle-triangle</title><g class="cls-2"><path class="cls-3" d="M59.58,72a2.86,2.86,0,0,0,2.83,2.91h0A2.9,2.9,0,1,0,59.58,72Z" transform="translate(14.61 4.89)"/><path class="cls-3" d="M69.58,76.19a2.91,2.91,0,0,0-3-2.86h0a2.9,2.9,0,1,0,3,2.9Z" transform="translate(14.61 4.89)"/><path class="cls-3" d="M61.09,76.2a2.92,2.92,0,0,0-3-2.87h0a2.9,2.9,0,1,0,3,3A.49.49,0,0,0,61.09,76.2Z" transform="translate(14.61 4.89)"/><path class="cls-3" d="M66.66,64.89a2.89,2.89,0,1,0,2.89,2.89,2.89,2.89,0,0,0-2.89-2.89Z" transform="translate(14.61 4.89)"/><path class="cls-3" d="M58.17,64.89A2.89,2.89,0,1,0,61,67.81,2.9,2.9,0,0,0,58.17,64.89Z" transform="translate(14.61 4.89)"/><path class="cls-3" d="M62.4,83.35a2.89,2.89,0,1,0,0-5.78h0a2.89,2.89,0,0,0,0,5.78Z" transform="translate(14.61 4.89)"/><path class="cls-3" d="M51.07,72.05A2.86,2.86,0,0,0,54,74.89h0a2.89,2.89,0,0,0,0-5.78h0A2.86,2.86,0,0,0,51.07,72Z" transform="translate(14.61 4.89)"/><path class="cls-3" d="M68,72a2.88,2.88,0,1,0,2.83-2.91h0A2.88,2.88,0,0,0,68,72Z" transform="translate(14.61 4.89)"/><path class="cls-3" d="M70.86,83.35a2.89,2.89,0,0,0,.34-5.77,1.93,1.93,0,0,0-.34,0,2.89,2.89,0,0,0,0,5.77Z" transform="translate(14.61 4.89)"/><path class="cls-3" d="M59.58,63.49a3,3,0,1,0,3.21-2.86c-.11,0-.22,0-.33,0A2.88,2.88,0,0,0,59.58,63.49Z" transform="translate(14.61 4.89)"/><path class="cls-3" d="M53.93,83.35a2.89,2.89,0,0,0,.34-5.77,1.93,1.93,0,0,0-.34,0,2.89,2.89,0,0,0,0,5.77Z" transform="translate(14.61 4.89)"/><path class="cls-3" d="M61.05,84.74a2.87,2.87,0,1,0-2.91,2.84A2.88,2.88,0,0,0,61.05,84.74Z" transform="translate(14.61 4.89)"/><path class="cls-3" d="M69.58,84.75a2.91,2.91,0,0,0-2.82-2.93,2.88,2.88,0,0,0-.18,5.76,2.91,2.91,0,0,0,3-2.82Z" transform="translate(14.61 4.89)"/><path class="cls-3" d="M68,63.45a2.86,2.86,0,1,0,2.91-2.81h0A2.88,2.88,0,0,0,68,63.45Z" transform="translate(14.61 4.89)"/><path class="cls-3" d="M51.08,63.53a2.86,2.86,0,1,0,2.86-2.89A2.89,2.89,0,0,0,51.08,63.53Z" transform="translate(14.61 4.89)"/><path class="cls-3" d="M49.73,79.1a2.88,2.88,0,1,0-2.89-2.87A2.89,2.89,0,0,0,49.73,79.1Z" transform="translate(14.61 4.89)"/><path class="cls-3" d="M78,76.23A2.87,2.87,0,1,0,75.1,79.1,2.87,2.87,0,0,0,78,76.23Z" transform="translate(14.61 4.89)"/><path class="cls-3" d="M75.09,70.62a2.87,2.87,0,1,0-2.82-2.92A2.88,2.88,0,0,0,75.09,70.62Z" transform="translate(14.61 4.89)"/><path class="cls-3" d="M49.67,64.89a2.87,2.87,0,1,0,.08,0Z" transform="translate(14.61 4.89)"/><path class="cls-3" d="M62.41,91.79a2.86,2.86,0,1,0-.34,0Z" transform="translate(14.61 4.89)"/><path class="cls-3" d="M66.67,56.42a2.86,2.86,0,1,0,2.86,2.86A2.86,2.86,0,0,0,66.67,56.42Z" transform="translate(14.61 4.89)"/><path class="cls-3" d="M58.21,56.42A2.86,2.86,0,1,0,61,59.33v-.06A2.89,2.89,0,0,0,58.21,56.42Z" transform="translate(14.61 4.89)"/><path class="cls-3" d="M48.29,72a2.81,2.81,0,0,0-2.81-2.81h0A2.83,2.83,0,1,0,48.29,72Z" transform="translate(14.61 4.89)"/><path class="cls-3" d="M53.93,91.77a2.81,2.81,0,1,0-.34,0C53.71,91.77,53.82,91.78,53.93,91.77Z" transform="translate(14.61 4.89)"/><path class="cls-3" d="M82.18,72a2.8,2.8,0,0,0-2.78-2.82h0a2.83,2.83,0,1,0,0,5.66h0A2.8,2.8,0,0,0,82.18,72Z" transform="translate(14.61 4.89)"/><path class="cls-3" d="M49.71,87.54a2.84,2.84,0,1,0-2.84-2.84v0A2.85,2.85,0,0,0,49.71,87.54Z" transform="translate(14.61 4.89)"/><path class="cls-3" d="M70.9,91.77a2.84,2.84,0,1,0-.34,0A1.93,1.93,0,0,0,70.9,91.77Z" transform="translate(14.61 4.89)"/><path class="cls-3" d="M77.94,84.7a2.82,2.82,0,0,0-2.8-2.81,2.84,2.84,0,1,0-.34,5.67h.34a2.82,2.82,0,0,0,2.8-2.82Z" transform="translate(14.61 4.89)"/><path class="cls-3" d="M82.17,80.5a2.8,2.8,0,0,0-2.74-2.86h0a2.82,2.82,0,1,0-.07,5.64,2.79,2.79,0,0,0,2.84-2.74Z" transform="translate(14.61 4.89)"/><path class="cls-3" d="M48.28,80.46a2.8,2.8,0,0,0-2.78-2.82h0a2.82,2.82,0,0,0,0,5.64h0a2.8,2.8,0,0,0,2.81-2.79Z" transform="translate(14.61 4.89)"/><path class="cls-3" d="M59.58,55.05a2.81,2.81,0,1,0,2.83-2.78A2.82,2.82,0,0,0,59.58,55.05Z" transform="translate(14.61 4.89)"/><path class="cls-3" d="M49.73,56.48a2.8,2.8,0,1,0-.34,5.59h.34a2.8,2.8,0,0,0,.33-5.59Z" transform="translate(14.61 4.89)"/><path class="cls-3" d="M69.45,93.24a2.81,2.81,0,1,0-5.61-.39,1.82,1.82,0,0,0,0,.33,2.81,2.81,0,0,0,5.61.06Z" transform="translate(14.61 4.89)"/><path class="cls-3" d="M61,93.22a2.81,2.81,0,1,0-5.62,0h0A2.82,2.82,0,0,0,58.17,96,2.78,2.78,0,0,0,61,93.24Z" transform="translate(14.61 4.89)"/><path class="cls-3" d="M75.13,56.48a2.8,2.8,0,1,0,2.8,2.83,2.8,2.8,0,0,0-2.8-2.83Z" transform="translate(14.61 4.89)"/><path class="cls-3" d="M79.38,60.72a2.8,2.8,0,1,0,2.78,2.82v0A2.79,2.79,0,0,0,79.38,60.72Z" transform="translate(14.61 4.89)"/><path class="cls-3" d="M42.65,63.52a2.78,2.78,0,1,0,0-.05Z" transform="translate(14.61 4.89)"/><path class="cls-3" d="M68.08,55.07a2.81,2.81,0,1,0,2.82-2.81,2.81,2.81,0,0,0-2.82,2.81Z" transform="translate(14.61 4.89)"/><path class="cls-3" d="M51.14,55A2.8,2.8,0,1,0,54,52.26h0A2.77,2.77,0,0,0,51.14,55Z" transform="translate(14.61 4.89)"/><path class="cls-3" d="M83.58,79a2.78,2.78,0,1,0-2.78-2.78h0A2.76,2.76,0,0,0,83.55,79Z" transform="translate(14.61 4.89)"/><path class="cls-3" d="M41.17,73.45a2.81,2.81,0,1,0,.08,0Z" transform="translate(14.61 4.89)"/><path class="cls-3" d="M83.58,65a2.77,2.77,0,1,0,2.76,2.79A2.76,2.76,0,0,0,83.58,65Z" transform="translate(14.61 4.89)"/><path class="cls-3" d="M38.46,67.79a2.73,2.73,0,0,0,2.75,2.73h.06a2.77,2.77,0,1,0-2.81-2.73Z" transform="translate(14.61 4.89)"/><path class="cls-3" d="M48.25,88.89a2.77,2.77,0,0,0-2.78-2.74h0a2.77,2.77,0,1,0,2.8,2.79Z" transform="translate(14.61 4.89)"/><path class="cls-3" d="M82.14,88.94a2.77,2.77,0,1,0-2.78,2.76,2.78,2.78,0,0,0,2.78-2.76Z" transform="translate(14.61 4.89)"/><path class="cls-3" d="M58.18,48A2.76,2.76,0,1,0,61,50.83,2.76,2.76,0,0,0,58.18,48Z" transform="translate(14.61 4.89)"/><path class="cls-3" d="M49.67,95.89a2.76,2.76,0,0,0,0-5.52h0a2.76,2.76,0,1,0,0,5.52Z" transform="translate(14.61 4.89)"/><path class="cls-3" d="M62.41,100.17a2.76,2.76,0,1,0,0-5.52h0a2.76,2.76,0,0,0,0,5.52Z" transform="translate(14.61 4.89)"/><path class="cls-3" d="M77.9,93.19a2.77,2.77,0,0,0-5.53-.07,2.72,2.72,0,0,0,2.69,2.77h0A2.78,2.78,0,0,0,77.9,93.19Z" transform="translate(14.61 4.89)"/><path class="cls-3" d="M66.64,48a2.76,2.76,0,1,0,2.79,2.77A2.76,2.76,0,0,0,66.64,48Z" transform="translate(14.61 4.89)"/><path class="cls-3" d="M41.21,87.45a2.76,2.76,0,1,0,.33-5.51h-.33a2.76,2.76,0,0,0,0,5.51Z" transform="translate(14.61 4.89)"/><path class="cls-3" d="M83.58,87.45a2.76,2.76,0,1,0,.33-5.51h-.33a2.76,2.76,0,0,0,0,5.51Z" transform="translate(14.61 4.89)"/><path class="cls-3" d="M70.9,100.16a2.75,2.75,0,1,0-2.78-2.72A2.76,2.76,0,0,0,70.9,100.16Z" transform="translate(14.61 4.89)"/><path class="cls-3" d="M34.26,72a2.75,2.75,0,0,0,5.49.33V72A2.79,2.79,0,0,0,37,69.26,2.74,2.74,0,0,0,34.26,72Z" transform="translate(14.61 4.89)"/><path class="cls-3" d="M90.58,72a2.79,2.79,0,0,0-2.75-2.73A2.75,2.75,0,1,0,90.58,72Z" transform="translate(14.61 4.89)"/><path class="cls-3" d="M79.36,52.29A2.75,2.75,0,1,0,82.11,55,2.75,2.75,0,0,0,79.36,52.29Z" transform="translate(14.61 4.89)"/><path class="cls-3" d="M42.74,55.07a2.72,2.72,0,0,0,2.74,2.72h0A2.75,2.75,0,1,0,42.74,55Z" transform="translate(14.61 4.89)"/><path class="cls-3" d="M54,100.16a2.75,2.75,0,1,0-2.79-2.72A2.75,2.75,0,0,0,54,100.16Z" transform="translate(14.61 4.89)"/><path class="cls-3" d="M38.5,59.22a2.74,2.74,0,1,0,2.8-2.68h0A2.74,2.74,0,0,0,38.5,59.22Z" transform="translate(14.61 4.89)"/><path class="cls-3" d="M83.65,56.54a2.74,2.74,0,0,0-.1,5.48h0a2.74,2.74,0,0,0,.1-5.48Z" transform="translate(14.61 4.89)"/><path class="cls-3" d="M49.72,48.07a2.74,2.74,0,1,0,2.72,2.76,2.74,2.74,0,0,0-2.72-2.76Z" transform="translate(14.61 4.89)"/><path class="cls-3" d="M90.58,80.43a2.73,2.73,0,1,0-2.72,2.77A2.74,2.74,0,0,0,90.58,80.43Z" transform="translate(14.61 4.89)"/><path class="cls-3" d="M75.14,48.07a2.74,2.74,0,1,0,2.72,2.76,2.74,2.74,0,0,0-2.72-2.76Z" transform="translate(14.61 4.89)"/><path class="cls-3" d="M37,83.2a2.74,2.74,0,1,0-2.69-2.79v.07A2.76,2.76,0,0,0,37,83.2Z" transform="translate(14.61 4.89)"/><path class="cls-3" d="M59.7,46.55a2.72,2.72,0,1,0,2.78-2.66h0A2.73,2.73,0,0,0,59.7,46.55Z" transform="translate(14.61 4.89)"/><path class="cls-3" d="M85.12,63.56a2.72,2.72,0,1,0,2.69-2.77,2.71,2.71,0,0,0-2.69,2.77Z" transform="translate(14.61 4.89)"/><path class="cls-3" d="M34.28,63.52A2.71,2.71,0,1,0,37,60.79,2.75,2.75,0,0,0,34.28,63.52Z" transform="translate(14.61 4.89)"/><path class="cls-3" d="M60.87,101.64a2.7,2.7,0,0,0-2.68-2.7h0a2.71,2.71,0,1,0,0,5.42h0A2.71,2.71,0,0,0,60.87,101.64Z" transform="translate(14.61 4.89)"/><path class="cls-3" d="M68.18,46.53a2.74,2.74,0,0,0,2.72,2.75,2.71,2.71,0,0,0,0-5.42A2.73,2.73,0,0,0,68.18,46.53Z" transform="translate(14.61 4.89)"/><path class="cls-3" d="M69.34,101.68a2.7,2.7,0,0,0-2.64-2.74h0a2.71,2.71,0,1,0,2.64,2.78Z" transform="translate(14.61 4.89)"/><path class="cls-3" d="M51.23,46.58a2.73,2.73,0,0,0,2.7,2.7,2.7,2.7,0,1,0-2.7-2.7Z" transform="translate(14.61 4.89)"/><path class="cls-3" d="M41.21,95.89a2.7,2.7,0,1,0-2.7-2.7A2.7,2.7,0,0,0,41.21,95.89Z" transform="translate(14.61 4.89)"/><path class="cls-3" d="M83.58,95.89a2.7,2.7,0,1,0-2.7-2.7A2.7,2.7,0,0,0,83.58,95.89Z" transform="translate(14.61 4.89)"/><path class="cls-3" d="M48.15,97.39a2.68,2.68,0,0,0-2.68-2.68h0a2.7,2.7,0,1,0,2.7,2.7Z" transform="translate(14.61 4.89)"/><path class="cls-3" d="M82,97.43a2.68,2.68,0,0,0-2.64-2.72h0a2.7,2.7,0,1,0,0,5.4h0A2.69,2.69,0,0,0,82,97.43Z" transform="translate(14.61 4.89)"/><path class="cls-3" d="M37,91.62a2.69,2.69,0,0,0,.26-5.37,1.71,1.71,0,0,0-.32,0A2.69,2.69,0,0,0,37,91.62Z" transform="translate(14.61 4.89)"/><path class="cls-3" d="M90.51,89a2.67,2.67,0,0,0-2.61-2.71h-.05A2.69,2.69,0,1,0,90.51,89Z" transform="translate(14.61 4.89)"/><path class="cls-3" d="M30.07,76.22a2.67,2.67,0,0,0,2.69,2.67h0A2.67,2.67,0,0,0,33,73.56a1.71,1.71,0,0,0-.32,0A2.69,2.69,0,0,0,30.07,76.22Z" transform="translate(14.61 4.89)"/><path class="cls-3" d="M94.74,76.22a2.64,2.64,0,0,0-2.6-2.66h-.09a2.67,2.67,0,0,0-.33,5.33,1.82,1.82,0,0,0,.33,0,2.64,2.64,0,0,0,2.69-2.57Z" transform="translate(14.61 4.89)"/><path class="cls-3" d="M77.79,101.73A2.67,2.67,0,1,0,75,104.3h.06a2.64,2.64,0,0,0,2.71-2.57Z" transform="translate(14.61 4.89)"/><path class="cls-3" d="M30.08,67.71a2.67,2.67,0,0,0,2.64,2.7h0a2.66,2.66,0,0,0,0-5.32h0A2.68,2.68,0,0,0,30.08,67.71Z" transform="translate(14.61 4.89)"/><path class="cls-3" d="M94.73,67.89a2.63,2.63,0,0,0-2.49-2.75h-.1a2.66,2.66,0,1,0-.43,5.3H92a2.63,2.63,0,0,0,2.72-2.54Z" transform="translate(14.61 4.89)"/><path class="cls-3" d="M49.71,104.3A2.66,2.66,0,1,0,47,101.61a2.66,2.66,0,0,0,2.68,2.69Z" transform="translate(14.61 4.89)"/><path class="cls-3" d="M83.66,48.16a2.65,2.65,0,1,0,2.6,2.73,2.64,2.64,0,0,0-2.6-2.73Z" transform="translate(14.61 4.89)"/><path class="cls-3" d="M32.73,87.34a2.64,2.64,0,1,0-2.62-2.67,2.64,2.64,0,0,0,2.62,2.67Z" transform="translate(14.61 4.89)"/><path class="cls-3" d="M94.72,84.7a2.65,2.65,0,1,0-2.66,2.64h0a2.62,2.62,0,0,0,2.65-2.59Z" transform="translate(14.61 4.89)"/><path class="cls-3" d="M34.34,55A2.65,2.65,0,1,0,37,52.4,2.64,2.64,0,0,0,34.34,55Z" transform="translate(14.61 4.89)"/><path class="cls-3" d="M85.18,55a2.66,2.66,0,1,0,2.69-2.63h0A2.63,2.63,0,0,0,85.18,55Z" transform="translate(14.61 4.89)"/><path class="cls-3" d="M58.15,39.69a2.64,2.64,0,1,0,2.68,2.61,2.63,2.63,0,0,0-2.68-2.61Z" transform="translate(14.61 4.89)"/><path class="cls-3" d="M66.67,39.69a2.64,2.64,0,1,0,2.63,2.65,2.63,2.63,0,0,0-2.63-2.65Z" transform="translate(14.61 4.89)"/><path class="cls-3" d="M38.58,50.8a2.65,2.65,0,1,0,2.67-2.63h0a2.63,2.63,0,0,0-2.65,2.61Z" transform="translate(14.61 4.89)"/><path class="cls-3" d="M62.44,108.51a2.63,2.63,0,1,0-2.66-2.62,2.64,2.64,0,0,0,2.66,2.62Z" transform="translate(14.61 4.89)"/><path class="cls-3" d="M79.4,43.94A2.63,2.63,0,1,0,82,46.6a2.63,2.63,0,0,0-2.59-2.66Z" transform="translate(14.61 4.89)"/><path class="cls-3" d="M42.83,46.57a2.64,2.64,0,1,0,2.65-2.63h0a2.61,2.61,0,0,0-2.63,2.61Z" transform="translate(14.61 4.89)"/><path class="cls-3" d="M70.87,108.5a2.62,2.62,0,1,0,0-5.24h0a2.62,2.62,0,1,0,0,5.24Z" transform="translate(14.61 4.89)"/><path class="cls-3" d="M32.8,56.66a2.62,2.62,0,1,0,2.58,2.65,2.61,2.61,0,0,0-2.58-2.65Z" transform="translate(14.61 4.89)"/><path class="cls-3" d="M53.93,108.5a2.62,2.62,0,0,0,0-5.24h0a2.62,2.62,0,0,0,0,5.24Z" transform="translate(14.61 4.89)"/><path class="cls-3" d="M94.71,59.28a2.63,2.63,0,0,0-2.64-2.62h0a2.62,2.62,0,0,0,0,5.24,2.64,2.64,0,0,0,2.67-2.61Z" transform="translate(14.61 4.89)"/><path class="cls-3" d="M25.92,72a2.59,2.59,0,0,0,2.59,2.61h0a2.61,2.61,0,1,0,0-5.22h0A2.59,2.59,0,0,0,25.92,72Z" transform="translate(14.61 4.89)"/><path class="cls-3" d="M98.93,72a2.64,2.64,0,0,0-2.6-2.61,2.61,2.61,0,1,0-.08,5.22A2.63,2.63,0,0,0,98.93,72Z" transform="translate(14.61 4.89)"/><path class="cls-3" d="M49.73,39.72a2.61,2.61,0,1,0,2.56,2.66A2.61,2.61,0,0,0,49.73,39.72Z" transform="translate(14.61 4.89)"/><path class="cls-3" d="M75.1,39.72a2.61,2.61,0,1,0,2.61,2.61A2.61,2.61,0,0,0,75.1,39.72Z" transform="translate(14.61 4.89)"/><path class="cls-3" d="M37,100a2.61,2.61,0,0,0,.32-5.21H37A2.61,2.61,0,0,0,37,100Z" transform="translate(14.61 4.89)"/><path class="cls-3" d="M90.45,97.43a2.65,2.65,0,0,0-2.59-2.63,2.61,2.61,0,1,0,2.59,2.63Z" transform="translate(14.61 4.89)"/><path class="cls-3" d="M98.92,80.44a2.55,2.55,0,1,0-5.08.22,2.54,2.54,0,0,0,5.08-.19Z" transform="translate(14.61 4.89)"/><path class="cls-3" d="M25.93,80.5a2.59,2.59,0,0,0,2.61,2.57h0a2.61,2.61,0,1,0,.54-5.19,2.66,2.66,0,0,0-.63,0A2.59,2.59,0,0,0,25.93,80.5Z" transform="translate(14.61 4.89)"/><path class="cls-3" d="M41.24,104.25a2.6,2.6,0,1,0-2.6-2.6A2.59,2.59,0,0,0,41.24,104.25Z" transform="translate(14.61 4.89)"/><path class="cls-3" d="M83.58,104.25a2.6,2.6,0,1,0-2.61-2.6,2.59,2.59,0,0,0,2.61,2.6Z" transform="translate(14.61 4.89)"/><path class="cls-3" d="M25.94,63.51a2.59,2.59,0,1,0,2.64-2.62,2.58,2.58,0,0,0-2.64,2.62Z" transform="translate(14.61 4.89)"/><path class="cls-3" d="M32.8,95.77a2.6,2.6,0,1,0-2.62-2.58A2.6,2.6,0,0,0,32.8,95.77Z" transform="translate(14.61 4.89)"/><path class="cls-3" d="M94.66,93.2A2.59,2.59,0,1,0,92,95.77,2.62,2.62,0,0,0,94.66,93.2Z" transform="translate(14.61 4.89)"/><path class="cls-3" d="M98.9,63.5a2.59,2.59,0,1,0-2.59,2.61A2.59,2.59,0,0,0,98.9,63.5Z" transform="translate(14.61 4.89)"/><path class="cls-3" d="M59.84,38.11a2.58,2.58,0,1,0,2.59-2.6A2.58,2.58,0,0,0,59.84,38.11Z" transform="translate(14.61 4.89)"/><path class="cls-3" d="M60.74,110.13a2.56,2.56,0,1,0,0,.05Z" transform="translate(14.61 4.89)"/><path class="cls-3" d="M69.21,110.07a2.57,2.57,0,0,0-2.6-2.52h0a2.58,2.58,0,1,0,2.59,2.57v-.05Z" transform="translate(14.61 4.89)"/><path class="cls-3" d="M48,105.89a2.57,2.57,0,0,0-2.52-2.6h-.06A2.58,2.58,0,1,0,48,105.9Z" transform="translate(14.61 4.89)"/><path class="cls-3" d="M81.92,105.89A2.64,2.64,0,1,0,79,108.44c.11,0,.21,0,.32,0a2.56,2.56,0,0,0,2.57-2.55Z" transform="translate(14.61 4.89)"/><path class="cls-3" d="M68.33,38.07a2.47,2.47,0,1,0,2.53-2.54A2.58,2.58,0,0,0,68.33,38.07Z" transform="translate(14.61 4.89)"/><path class="cls-3" d="M51.38,38.06A2.49,2.49,0,1,0,54,35.53,2.57,2.57,0,0,0,51.38,38.06Z" transform="translate(14.61 4.89)"/><path class="cls-3" d="M87.82,44a2.55,2.55,0,1,0,2.55,2.55A2.55,2.55,0,0,0,87.82,44Z" transform="translate(14.61 4.89)"/><path class="cls-3" d="M28.47,91.49a2.5,2.5,0,1,1,.05,0Z" transform="translate(14.61 4.89)"/><path class="cls-3" d="M98.84,88.89a2.52,2.52,0,0,0-2.48-2.54h-.07a2.55,2.55,0,0,0,0,5.1A2.52,2.52,0,0,0,98.84,89Z" transform="translate(14.61 4.89)"/><path class="cls-3" d="M34.44,46.56A2.58,2.58,0,0,0,37,49.12a2.55,2.55,0,1,0-2.56-2.56Z" transform="translate(14.61 4.89)"/><path class="cls-3" d="M92.09,48.27a2.51,2.51,0,1,0,.31,0Z" transform="translate(14.61 4.89)"/><path class="cls-3" d="M32.79,48.27a2.57,2.57,0,1,0,.3,0Z" transform="translate(14.61 4.89)"/><path class="cls-3" d="M38.69,42.3a2.52,2.52,0,0,0,2.47,2.59h.07a2.52,2.52,0,0,0,.63-5,2.22,2.22,0,0,0-.63,0A2.54,2.54,0,0,0,38.69,42.3Z" transform="translate(14.61 4.89)"/><path class="cls-3" d="M83.58,39.81a2.52,2.52,0,1,0-.64,5,2.29,2.29,0,0,0,.64,0,2.52,2.52,0,0,0,.63-5A2.22,2.22,0,0,0,83.58,39.81Z" transform="translate(14.61 4.89)"/><path class="cls-3" d="M100.58,73.71a2.52,2.52,0,1,0,2.53,2.55,2.52,2.52,0,0,0-2.53-2.55Z" transform="translate(14.61 4.89)"/><path class="cls-3" d="M24.27,78.75a2.52,2.52,0,0,0,.63-5,2.22,2.22,0,0,0-.63,0,2.52,2.52,0,1,0-.64,5A2.29,2.29,0,0,0,24.27,78.75Z" transform="translate(14.61 4.89)"/><path class="cls-3" d="M77.64,110.15a2.52,2.52,0,1,0-5-.63,2.22,2.22,0,0,0,0,.63,2.52,2.52,0,0,0,2.52,2.5,2.48,2.48,0,0,0,2.48-2.48Z" transform="translate(14.61 4.89)"/><path class="cls-3" d="M21.75,67.73a2.61,2.61,0,1,0,2.94-2.47,3.23,3.23,0,0,0-.44,0A2.51,2.51,0,0,0,21.75,67.73Z" transform="translate(14.61 4.89)"/><path class="cls-3" d="M100.58,65.24a2.51,2.51,0,1,0,2.53,2.49v0a2.48,2.48,0,0,0-2.49-2.47Z" transform="translate(14.61 4.89)"/><path class="cls-3" d="M96.34,52.53a2.51,2.51,0,1,0,2.49,2.53h0A2.52,2.52,0,0,0,96.34,52.53Z" transform="translate(14.61 4.89)"/><path class="cls-3" d="M49.7,112.63a2.49,2.49,0,1,0-.45,0A3.38,3.38,0,0,0,49.7,112.63Z" transform="translate(14.61 4.89)"/><path class="cls-3" d="M26,55A2.46,2.46,0,1,0,26,55Z" transform="translate(14.61 4.89)"/><path class="cls-3" d="M43,38.09A2.47,2.47,0,1,0,43,38Z" transform="translate(14.61 4.89)"/><path class="cls-3" d="M79.27,35.6A2.49,2.49,0,1,0,81.87,38a2.49,2.49,0,0,0-2.6-2.42Z" transform="translate(14.61 4.89)"/><path class="cls-3" d="M24.23,87.18a2.49,2.49,0,1,0-2.43-2.55,2.49,2.49,0,0,0,2.43,2.55Z" transform="translate(14.61 4.89)"/><path class="cls-3" d="M103.05,84.73a2.5,2.5,0,1,0-2.53,2.48,2.51,2.51,0,0,0,2.53-2.48Z" transform="translate(14.61 4.89)"/><path class="cls-3" d="M58.21,31.38a2.45,2.45,0,1,0,.31,0Z" transform="translate(14.61 4.89)"/><path class="cls-3" d="M66.67,31.38a2.48,2.48,0,1,0-.32,4.95,1.71,1.71,0,0,0,.32,0A2.48,2.48,0,1,0,67,31.38Z" transform="translate(14.61 4.89)"/><path class="cls-3" d="M62.34,116.83a2.5,2.5,0,1,0-2.44-2.56A2.51,2.51,0,0,0,62.34,116.83Z" transform="translate(14.61 4.89)"/><path class="cls-3" d="M32.73,104.12a2.5,2.5,0,1,0-2.5-2.5A2.5,2.5,0,0,0,32.73,104.12Z" transform="translate(14.61 4.89)"/><path class="cls-3" d="M92.06,104.12a2.5,2.5,0,1,0-2.5-2.5,2.5,2.5,0,0,0,2.5,2.5Z" transform="translate(14.61 4.89)"/><path class="cls-3" d="M100.58,56.8a2.5,2.5,0,1,0-.1,5h0a2.5,2.5,0,0,0,.1-5Z" transform="translate(14.61 4.89)"/><path class="cls-3" d="M87.85,108.35a2.47,2.47,0,1,0-2.47-2.47h0a2.45,2.45,0,0,0,2.44,2.46Z" transform="translate(14.61 4.89)"/><path class="cls-3" d="M37,108.35a2.47,2.47,0,1,0-2.44-2.46A2.44,2.44,0,0,0,37,108.35Z" transform="translate(14.61 4.89)"/><path class="cls-3" d="M24.3,61.75a2.47,2.47,0,0,0,0-4.94h0a2.47,2.47,0,0,0,0,4.94Z" transform="translate(14.61 4.89)"/><path class="cls-3" d="M28.52,99.89a2.46,2.46,0,1,0,0-4.92h0a2.46,2.46,0,1,0,0,4.92Z" transform="translate(14.61 4.89)"/><path class="cls-3" d="M96.32,99.89a2.46,2.46,0,1,0-2.46-2.46h0a2.45,2.45,0,0,0,2.45,2.45Z" transform="translate(14.61 4.89)"/><path class="cls-3" d="M54,116.82a2.47,2.47,0,1,0-2.48-2.46h0a2.45,2.45,0,0,0,2.45,2.45Z" transform="translate(14.61 4.89)"/><path class="cls-3" d="M70.89,116.82a2.47,2.47,0,1,0-.32,0A1.71,1.71,0,0,0,70.89,116.82Z" transform="translate(14.61 4.89)"/><path class="cls-3" d="M75.18,31.4a2.46,2.46,0,1,0,2.4,2.52v0A2.47,2.47,0,0,0,75.18,31.4Z" transform="translate(14.61 4.89)"/><path class="cls-3" d="M49.72,31.4a2.46,2.46,0,1,0,2.44,2.49,2.46,2.46,0,0,0-2.44-2.49Z" transform="translate(14.61 4.89)"/><path class="cls-3" d="M83.63,112.58a2.46,2.46,0,1,0-2.46-2.46A2.45,2.45,0,0,0,83.63,112.58Z" transform="translate(14.61 4.89)"/><path class="cls-3" d="M41.24,112.57a2.45,2.45,0,1,0-2.45-2.48A2.45,2.45,0,0,0,41.24,112.57Z" transform="translate(14.61 4.89)"/><path class="cls-3" d="M104.82,69.54A2.45,2.45,0,1,0,107.23,72v0A2.45,2.45,0,0,0,104.82,69.54Z" transform="translate(14.61 4.89)"/><path class="cls-3" d="M20.08,74.43a2.44,2.44,0,1,0-2.5-2.38,2.43,2.43,0,0,0,2.5,2.38Z" transform="translate(14.61 4.89)"/><path class="cls-3" d="M24.3,95.62a2.45,2.45,0,1,0-2.45-2.48,2.45,2.45,0,0,0,2.45,2.48Z" transform="translate(14.61 4.89)"/><path class="cls-3" d="M100.58,95.61a2.44,2.44,0,1,0-2.47-2.41v0A2.43,2.43,0,0,0,100.58,95.61Z" transform="translate(14.61 4.89)"/><path class="cls-3" d="M20.07,82.89a2.44,2.44,0,0,0,0-4.87,2.44,2.44,0,0,0,0,4.87Z" transform="translate(14.61 4.89)"/><path class="cls-3" d="M104.75,78a2.44,2.44,0,1,0,2.45,2.43v0A2.46,2.46,0,0,0,104.75,78Z" transform="translate(14.61 4.89)"/><path class="cls-3" d="M92,39.89a2.42,2.42,0,1,0,2.42,2.42A2.42,2.42,0,0,0,92,39.89Z" transform="translate(14.61 4.89)"/><path class="cls-3" d="M32.77,39.89a2.42,2.42,0,1,0,2.39,2.45,2.41,2.41,0,0,0-2.39-2.45Z" transform="translate(14.61 4.89)"/><path class="cls-3" d="M28.48,44.15a2.42,2.42,0,1,0,2.42,2.42,2.42,2.42,0,0,0-2.42-2.42Z" transform="translate(14.61 4.89)"/><path class="cls-3" d="M96.31,44.15a2.42,2.42,0,1,0,2.42,2.42,2.42,2.42,0,0,0-2.42-2.42Z" transform="translate(14.61 4.89)"/><path class="cls-3" d="M104.75,65.89a2.38,2.38,0,1,0-.31,0Z" transform="translate(14.61 4.89)"/><path class="cls-3" d="M20,61.11a2.41,2.41,0,1,0-.31,4.81,1.6,1.6,0,0,0,.31,0,2.41,2.41,0,0,0,0-4.81Z" transform="translate(14.61 4.89)"/><path class="cls-3" d="M87.86,35.69a2.41,2.41,0,0,0-.31,4.81h.31a2.41,2.41,0,0,0,0-4.81Z" transform="translate(14.61 4.89)"/><path class="cls-3" d="M45.4,116.76a2.4,2.4,0,1,0-2.34-2.47A2.39,2.39,0,0,0,45.4,116.76Z" transform="translate(14.61 4.89)"/><path class="cls-3" d="M37,35.69a2.41,2.41,0,0,0-.38,4.81H37A2.41,2.41,0,0,0,37,35.69Z" transform="translate(14.61 4.89)"/><path class="cls-3" d="M79.38,116.76a2.4,2.4,0,1,0-2.4-2.4A2.4,2.4,0,0,0,79.38,116.76Z" transform="translate(14.61 4.89)"/><path class="cls-3" d="M24.28,48.43A2.38,2.38,0,1,0,24,53.18h.31a2.38,2.38,0,0,0,0-4.75Z" transform="translate(14.61 4.89)"/><path class="cls-3" d="M100.58,48.43a2.38,2.38,0,0,0-.31,4.75h.31a2.38,2.38,0,0,0,0-4.75Z" transform="translate(14.61 4.89)"/><path class="cls-3" d="M62.4,27.24A2.39,2.39,0,0,0,62.09,32a1.6,1.6,0,0,0,.31,0,2.39,2.39,0,0,0,.31-4.77Z" transform="translate(14.61 4.89)"/><path class="cls-3" d="M104.76,91.3a2.34,2.34,0,1,0-.05,0Z" transform="translate(14.61 4.89)"/><path class="cls-3" d="M66.66,121a2.37,2.37,0,1,0-2.39-2.36A2.37,2.37,0,0,0,66.66,121Z" transform="translate(14.61 4.89)"/><path class="cls-3" d="M58.15,121a2.37,2.37,0,1,0-2.35-2.4,2.37,2.37,0,0,0,2.35,2.4Z" transform="translate(14.61 4.89)"/><path class="cls-3" d="M54,27.26a2.36,2.36,0,1,0,2.36,2.37A2.36,2.36,0,0,0,54,27.26Z" transform="translate(14.61 4.89)"/><path class="cls-3" d="M70.92,27.26a2.36,2.36,0,1,0,2.34,2.39,2.36,2.36,0,0,0-2.34-2.39Z" transform="translate(14.61 4.89)"/><path class="cls-3" d="M20,91.3a2.37,2.37,0,1,0-2.35-2.41A2.34,2.34,0,0,0,20,91.3Z" transform="translate(14.61 4.89)"/><path class="cls-3" d="M83.58,31.5a2.35,2.35,0,1,0,.08,0Z" transform="translate(14.61 4.89)"/><path class="cls-3" d="M41.24,31.5a2.36,2.36,0,1,0,2.34,2.39,2.36,2.36,0,0,0-2.34-2.39Z" transform="translate(14.61 4.89)"/><path class="cls-3" d="M104.76,52.71A2.33,2.33,0,1,0,107.09,55a2.33,2.33,0,0,0-2.33-2.33Z" transform="translate(14.61 4.89)"/><path class="cls-3" d="M20,57.37a2.33,2.33,0,0,0,0-4.66h0a2.33,2.33,0,0,0,0,4.66Z" transform="translate(14.61 4.89)"/><path class="cls-3" d="M28.58,108.21a2.33,2.33,0,1,0,0-4.66h0a2.33,2.33,0,1,0,0,4.66Z" transform="translate(14.61 4.89)"/><path class="cls-3" d="M96.3,108.21a2.33,2.33,0,1,0,0-4.66h0a2.33,2.33,0,1,0,0,4.66Z" transform="translate(14.61 4.89)"/><path class="cls-3" d="M75.16,120.89a2.33,2.33,0,0,0,.24-4.65h-.3a2.33,2.33,0,0,0,.06,4.65Z" transform="translate(14.61 4.89)"/><path class="cls-3" d="M49.74,120.89a2.33,2.33,0,0,0,.24-4.65h-.3a2.33,2.33,0,0,0,.06,4.65Z" transform="translate(14.61 4.89)"/><path class="cls-3" d="M109,73.89a2.33,2.33,0,1,0,.3,0A1.5,1.5,0,0,0,109,73.89Z" transform="translate(14.61 4.89)"/><path class="cls-3" d="M15.81,78.55a2.33,2.33,0,1,0,0-4.66,2.33,2.33,0,0,0,0,4.66Z" transform="translate(14.61 4.89)"/><path class="cls-3" d="M100.58,104a2.33,2.33,0,0,0,.3-4.65h-.3a2.33,2.33,0,0,0,0,4.65Z" transform="translate(14.61 4.89)"/><path class="cls-3" d="M32.7,112.44a2.32,2.32,0,1,0-2.28-2.36A2.33,2.33,0,0,0,32.7,112.44Z" transform="translate(14.61 4.89)"/><path class="cls-3" d="M92.11,112.44a2.32,2.32,0,0,0,0-4.64h0a2.32,2.32,0,0,0,0,4.64Z" transform="translate(14.61 4.89)"/><path class="cls-3" d="M109.06,70.07a2.32,2.32,0,1,0-2.32-2.32,2.32,2.32,0,0,0,2.32,2.32Z" transform="translate(14.61 4.89)"/><path class="cls-3" d="M15.86,70.07a2.32,2.32,0,1,0-.06-4.64h0a2.32,2.32,0,1,0,.06,4.64Z" transform="translate(14.61 4.89)"/><path class="cls-3" d="M24.31,104A2.32,2.32,0,1,0,22,101.65v.06A2.32,2.32,0,0,0,24.31,104Z" transform="translate(14.61 4.89)"/><path class="cls-3" d="M45.5,27.3a2.32,2.32,0,0,0-.06,4.64h0a2.32,2.32,0,1,0,.06-4.64Z" transform="translate(14.61 4.89)"/><path class="cls-3" d="M79.37,27.3a2.32,2.32,0,1,0,2.32,2.32,2.32,2.32,0,0,0-2.32-2.32Z" transform="translate(14.61 4.89)"/><path class="cls-3" d="M87.83,116.67a2.31,2.31,0,1,0-2.29-2.33v0A2.34,2.34,0,0,0,87.83,116.67Z" transform="translate(14.61 4.89)"/><path class="cls-3" d="M109,82.39a2.31,2.31,0,1,0,2.28,2.34v0A2.32,2.32,0,0,0,109,82.39Z" transform="translate(14.61 4.89)"/><path class="cls-3" d="M15.78,87a2.31,2.31,0,1,0-2.27-2.35v0A2.33,2.33,0,0,0,15.78,87Z" transform="translate(14.61 4.89)"/><path class="cls-3" d="M37,116.67a2.31,2.31,0,1,0-2.26-2.36v0A2.31,2.31,0,0,0,37,116.67Z" transform="translate(14.61 4.89)"/><path class="cls-3" d="M104.77,99.7a2.29,2.29,0,1,0-2.29-2.29,2.3,2.3,0,0,0,2.29,2.29Z" transform="translate(14.61 4.89)"/><path class="cls-3" d="M20.06,99.7A2.29,2.29,0,1,0,20,95.12h0a2.29,2.29,0,0,0,.06,4.58Z" transform="translate(14.61 4.89)"/><path class="cls-3" d="M15.81,57a2.27,2.27,0,1,0,2.27,2.27A2.27,2.27,0,0,0,15.81,57Z" transform="translate(14.61 4.89)"/><path class="cls-3" d="M109,57a2.27,2.27,0,1,0,2.27,2.27A2.27,2.27,0,0,0,109,57Z" transform="translate(14.61 4.89)"/><path class="cls-3" d="M58.16,23.11a2.28,2.28,0,1,0,.3,0Z" transform="translate(14.61 4.89)"/><path class="cls-3" d="M66.64,23.11a2.28,2.28,0,1,0,.3,0Z" transform="translate(14.61 4.89)"/><path class="cls-3" d="M62.42,125.09a2.26,2.26,0,1,0-.3,0Z" transform="translate(14.61 4.89)"/><path class="cls-3" d="M28.58,35.89a2.26,2.26,0,1,0-.3,4.51h.3a2.26,2.26,0,0,0,0-4.51Z" transform="translate(14.61 4.89)"/><path class="cls-3" d="M96.33,35.89A2.26,2.26,0,1,0,96,40.4h.3a2.26,2.26,0,0,0,0-4.51Z" transform="translate(14.61 4.89)"/><path class="cls-3" d="M100.58,40.09a2.24,2.24,0,1,0,2.26,2.22A2.25,2.25,0,0,0,100.58,40.09Z" transform="translate(14.61 4.89)"/><path class="cls-3" d="M41.26,120.83a2.24,2.24,0,1,0-.3,0A1.5,1.5,0,0,0,41.26,120.83Z" transform="translate(14.61 4.89)"/><path class="cls-3" d="M83.58,120.83a2.24,2.24,0,1,0-.3,0A1.5,1.5,0,0,0,83.58,120.83Z" transform="translate(14.61 4.89)"/><path class="cls-3" d="M24.31,40.09a2.24,2.24,0,1,0,2.19,2.29,2.25,2.25,0,0,0-2.19-2.29Z" transform="translate(14.61 4.89)"/><path class="cls-3" d="M53.93,125.06a2.23,2.23,0,1,0-2.24-2.24A2.24,2.24,0,0,0,53.93,125.06Z" transform="translate(14.61 4.89)"/><path class="cls-3" d="M70.89,125.06a2.23,2.23,0,1,0,.29-4.45,1.4,1.4,0,0,0-.29,0,2.23,2.23,0,1,0-.3,4.45Z" transform="translate(14.61 4.89)"/><path class="cls-3" d="M92.1,31.63a2.23,2.23,0,1,0-.3,4.45,1.5,1.5,0,0,0,.3,0,2.23,2.23,0,0,0,.29-4.45Z" transform="translate(14.61 4.89)"/><path class="cls-3" d="M32.78,31.63a2.23,2.23,0,0,0-.35,4.45c.1,0,.2,0,.3,0a2.23,2.23,0,0,0,.34-4.45Z" transform="translate(14.61 4.89)"/><path class="cls-3" d="M49.76,23.17a2.22,2.22,0,1,0,2.17,2.29,2.21,2.21,0,0,0-2.17-2.29Z" transform="translate(14.61 4.89)"/><path class="cls-3" d="M75.13,23.17a2.22,2.22,0,1,0,2.22,2.23,2.21,2.21,0,0,0-2.22-2.23Z" transform="translate(14.61 4.89)"/><path class="cls-3" d="M15.8,95.38a2.21,2.21,0,1,0-2.22-2.2h0a2.19,2.19,0,0,0,2.21,2.19Z" transform="translate(14.61 4.89)"/><path class="cls-3" d="M109,95.38a2.21,2.21,0,1,0-2.2-2.22v0A2.18,2.18,0,0,0,109,95.38Z" transform="translate(14.61 4.89)"/><path class="cls-3" d="M20,44.36a2.21,2.21,0,1,0,.09,0Z" transform="translate(14.61 4.89)"/><path class="cls-3" d="M104.81,44.36a2.21,2.21,0,1,0,2.2,2.22v0A2.21,2.21,0,0,0,104.81,44.36Z" transform="translate(14.61 4.89)"/><path class="cls-3" d="M11.58,69.79a2.2,2.2,0,1,0,0,4.4h0a2.2,2.2,0,1,0,0-4.4Z" transform="translate(14.61 4.89)"/><path class="cls-3" d="M113.26,74.19a2.2,2.2,0,1,0-2.2-2.2A2.2,2.2,0,0,0,113.26,74.19Z" transform="translate(14.61 4.89)"/><path class="cls-3" d="M37,31.81a2.19,2.19,0,1,0-2.19-2.19A2.19,2.19,0,0,0,37,31.81Z" transform="translate(14.61 4.89)"/><path class="cls-3" d="M87.86,27.43a2.19,2.19,0,1,0,2.19,2.19A2.19,2.19,0,0,0,87.86,27.43Z" transform="translate(14.61 4.89)"/><path class="cls-3" d="M113.23,78.27a2.19,2.19,0,1,0,2.22,2.16,2.19,2.19,0,0,0-2.22-2.16Z" transform="translate(14.61 4.89)"/><path class="cls-3" d="M11.58,82.65a2.19,2.19,0,0,0,0-4.38h0a2.19,2.19,0,1,0,0,4.38Z" transform="translate(14.61 4.89)"/><path class="cls-3" d="M45.47,125a2.18,2.18,0,1,0-2.18-2.18A2.19,2.19,0,0,0,45.47,125Z" transform="translate(14.61 4.89)"/><path class="cls-3" d="M79.39,120.65a2.18,2.18,0,1,0,0,4.36h0a2.18,2.18,0,1,0,0-4.36Z" transform="translate(14.61 4.89)"/><path class="cls-3" d="M11.58,65.7a2.19,2.19,0,1,0-.3,0Z" transform="translate(14.61 4.89)"/><path class="cls-3" d="M113.28,61.33a2.16,2.16,0,1,0,.28,0Z" transform="translate(14.61 4.89)"/><path class="cls-3" d="M109,48.63a2.18,2.18,0,1,0,.29,0A1.4,1.4,0,0,0,109,48.63Z" transform="translate(14.61 4.89)"/><path class="cls-3" d="M15.79,53a2.18,2.18,0,1,0,.29-4.35,1.4,1.4,0,0,0-.29,0,2.18,2.18,0,0,0,0,4.35Z" transform="translate(14.61 4.89)"/><path class="cls-3" d="M28.5,116.52a2.16,2.16,0,1,0-2.13-2.19h0A2.18,2.18,0,0,0,28.5,116.52Z" transform="translate(14.61 4.89)"/><path class="cls-3" d="M96.28,112.2a2.16,2.16,0,1,0,2.17,2.15v0A2.19,2.19,0,0,0,96.28,112.2Z" transform="translate(14.61 4.89)"/><path class="cls-3" d="M100.58,108a2.16,2.16,0,1,0,2.16,2.16A2.16,2.16,0,0,0,100.58,108Z" transform="translate(14.61 4.89)"/><path class="cls-3" d="M24.26,112.28a2.16,2.16,0,1,0-2.14-2.18A2.16,2.16,0,0,0,24.26,112.28Z" transform="translate(14.61 4.89)"/><path class="cls-3" d="M62.39,23.3a2.16,2.16,0,1,0-2.12-2.2v0A2.15,2.15,0,0,0,62.39,23.3Z" transform="translate(14.61 4.89)"/><path class="cls-3" d="M41.22,27.53a2.15,2.15,0,1,0-2.13-2.17,2.15,2.15,0,0,0,2.13,2.17Z" transform="translate(14.61 4.89)"/><path class="cls-3" d="M83.58,27.53a2.15,2.15,0,1,0,.29-4.29h-.29a2.15,2.15,0,0,0,0,4.29Z" transform="translate(14.61 4.89)"/><path class="cls-3" d="M11.58,91.08a2.15,2.15,0,0,0,.29-4.29,1.4,1.4,0,0,0-.29,0,2.15,2.15,0,0,0,0,4.29Z" transform="translate(14.61 4.89)"/><path class="cls-3" d="M113.23,86.79a2.15,2.15,0,1,0,2,2A2.15,2.15,0,0,0,113.23,86.79Z" transform="translate(14.61 4.89)"/><path class="cls-3" d="M20.06,108a2.15,2.15,0,0,0-.06-4.29,2.15,2.15,0,0,0,.06,4.29Z" transform="translate(14.61 4.89)"/><path class="cls-3" d="M104.74,103.74a2.15,2.15,0,1,0,2,2A2.15,2.15,0,0,0,104.74,103.74Z" transform="translate(14.61 4.89)"/><path class="cls-3" d="M54,23.28a2.13,2.13,0,1,0-2.16-2.14A2.14,2.14,0,0,0,54,23.28Z" transform="translate(14.61 4.89)"/><path class="cls-3" d="M66.58,124.94a2.13,2.13,0,1,0,2.16,2.1A2.13,2.13,0,0,0,66.58,124.94Z" transform="translate(14.61 4.89)"/><path class="cls-3" d="M58.18,124.94a2.13,2.13,0,1,0,0,4.26h0a2.13,2.13,0,0,0,0-4.26Z" transform="translate(14.61 4.89)"/><path class="cls-3" d="M70.86,23.28a2.13,2.13,0,1,0-2.13-2.13,2.13,2.13,0,0,0,2.13,2.13Z" transform="translate(14.61 4.89)"/><path class="cls-3" d="M32.76,116.49a2.11,2.11,0,1,0,2.11,2.11A2.1,2.1,0,0,0,32.76,116.49Z" transform="translate(14.61 4.89)"/><path class="cls-3" d="M92.12,116.49a2.12,2.12,0,0,0-2.18,2.08v0a2.15,2.15,0,0,0,2.12,2.11,2.1,2.1,0,0,0,2.12-2.08h0a2.08,2.08,0,0,0-2-2.13Z" transform="translate(14.61 4.89)"/><path class="cls-3" d="M11.48,57.12A2.08,2.08,0,1,0,11.7,53h0a2.08,2.08,0,0,0-.22,4.16Z" transform="translate(14.61 4.89)"/><path class="cls-3" d="M15.83,99.57a2,2,0,1,0,.05,0Z" transform="translate(14.61 4.89)"/><path class="cls-3" d="M109,99.57a2.08,2.08,0,1,0,2.11,2.08A2.08,2.08,0,0,0,109,99.57Z" transform="translate(14.61 4.89)"/><path class="cls-3" d="M113.2,53a2.08,2.08,0,0,0,.08,4.16h0A2.08,2.08,0,1,0,113.2,53Z" transform="translate(14.61 4.89)"/><path class="cls-3" d="M75.13,125a2.06,2.06,0,1,0,2.06,2.06A2.06,2.06,0,0,0,75.13,125Z" transform="translate(14.61 4.89)"/><path class="cls-3" d="M49.72,125a2.06,2.06,0,1,0,2.06,2.06V127a2,2,0,0,0-2-2Z" transform="translate(14.61 4.89)"/><path class="cls-3" d="M117.48,74.17a2.06,2.06,0,1,0,.28,0A1.31,1.31,0,0,0,117.48,74.17Z" transform="translate(14.61 4.89)"/><path class="cls-3" d="M7.33,78.28a2.06,2.06,0,0,0,.28-4.11,1.31,1.31,0,0,0-.28,0,2.06,2.06,0,0,0,0,4.11Z" transform="translate(14.61 4.89)"/><path class="cls-3" d="M100.58,35.89a2.06,2.06,0,0,0,.22-4.11,1.31,1.31,0,0,0-.28,0,2.06,2.06,0,0,0,.06,4.11Z" transform="translate(14.61 4.89)"/><path class="cls-3" d="M87.81,120.78a2.05,2.05,0,1,0,2.08,2A2,2,0,0,0,87.81,120.78Z" transform="translate(14.61 4.89)"/><path class="cls-3" d="M37,120.78a2,2,0,1,0,2,2,2,2,0,0,0-2-2Z" transform="translate(14.61 4.89)"/><path class="cls-3" d="M24.27,35.89a2.06,2.06,0,0,0,.28-4.11,1.31,1.31,0,0,0-.28,0,2.06,2.06,0,0,0,0,4.11Z" transform="translate(14.61 4.89)"/><path class="cls-3" d="M20.05,40.14a2,2,0,1,0-2.05-2A2,2,0,0,0,20.05,40.14Z" transform="translate(14.61 4.89)"/><path class="cls-3" d="M104.81,40.14a2,2,0,1,0-2-2A2,2,0,0,0,104.81,40.14Z" transform="translate(14.61 4.89)"/><path class="cls-3" d="M7.34,69.8A2.06,2.06,0,0,0,9.4,67.74h0a2.1,2.1,0,0,0-2-2,2.05,2.05,0,1,0,0,4.1h0Z" transform="translate(14.61 4.89)"/><path class="cls-3" d="M79.37,23.19a2,2,0,1,0-2.05-2.05A2,2,0,0,0,79.37,23.19Z" transform="translate(14.61 4.89)"/><path class="cls-3" d="M45.46,23.19a2,2,0,1,0-2-2.08A2,2,0,0,0,45.46,23.19Z" transform="translate(14.61 4.89)"/><path class="cls-3" d="M117.58,69.8a2.05,2.05,0,0,0,0-4.1,2.05,2.05,0,1,0,0,4.1Z" transform="translate(14.61 4.89)"/><path class="cls-3" d="M28.5,31.66a2,2,0,1,0-2-2A2,2,0,0,0,28.5,31.66Z" transform="translate(14.61 4.89)"/><path class="cls-3" d="M96.31,31.66a2,2,0,1,0-2-2A2,2,0,0,0,96.31,31.66Z" transform="translate(14.61 4.89)"/><path class="cls-3" d="M113.24,95.37a2,2,0,1,0,2,2A2,2,0,0,0,113.24,95.37Z" transform="translate(14.61 4.89)"/><path class="cls-3" d="M11.58,95.37a2,2,0,1,0,2,2.1A2,2,0,0,0,11.58,95.37Z" transform="translate(14.61 4.89)"/><path class="cls-3" d="M7.33,82.66a2,2,0,1,0,2,2A2,2,0,0,0,7.33,82.66Z" transform="translate(14.61 4.89)"/><path class="cls-3" d="M117.49,82.66a2,2,0,1,0,2,2A2,2,0,0,0,117.49,82.66Z" transform="translate(14.61 4.89)"/><path class="cls-3" d="M15.83,44.36a2,2,0,1,0-2-2A2,2,0,0,0,15.83,44.36Z" transform="translate(14.61 4.89)"/><path class="cls-3" d="M109,44.36a2,2,0,1,0-2-2A2,2,0,0,0,109,44.36Z" transform="translate(14.61 4.89)"/><path class="cls-3" d="M92.05,27.4a2,2,0,1,0-2-2A2,2,0,0,0,92.05,27.4Z" transform="translate(14.61 4.89)"/><path class="cls-3" d="M66.68,18.89a2,2,0,1,0-2-2A2,2,0,0,0,66.68,18.89Z" transform="translate(14.61 4.89)"/><path class="cls-3" d="M58.19,18.89a2,2,0,1,0-2-2A2,2,0,0,0,58.19,18.89Z" transform="translate(14.61 4.89)"/><path class="cls-3" d="M32.74,27.39a2,2,0,1,0-2-2A2,2,0,0,0,32.74,27.39Z" transform="translate(14.61 4.89)"/><path class="cls-3" d="M117.52,61.29a2,2,0,1,0-2-2A2,2,0,0,0,117.52,61.29Z" transform="translate(14.61 4.89)"/><path class="cls-3" d="M7.36,61.29a2,2,0,1,0-2-2A2,2,0,0,0,7.36,61.29Z" transform="translate(14.61 4.89)"/><path class="cls-3" d="M83.58,125.08a2,2,0,1,0,2,2A2,2,0,0,0,83.58,125.08Z" transform="translate(14.61 4.89)"/><path class="cls-3" d="M41.23,125.08a2,2,0,1,0,2,2A2,2,0,0,0,41.23,125.08Z" transform="translate(14.61 4.89)"/><path class="cls-3" d="M62.44,129.34a2,2,0,1,0-.75,3.93,1.89,1.89,0,0,0,.75,0,2,2,0,0,0,0-3.93Z" transform="translate(14.61 4.89)"/><path class="cls-3" d="M113.23,48.54a2,2,0,1,0-.69,0A2,2,0,0,0,113.23,48.54Z" transform="translate(14.61 4.89)"/><path class="cls-3" d="M11.58,48.52a2,2,0,0,0,.89-3.9,1.91,1.91,0,0,0-.89,0,2,2,0,1,0-.89,3.9A1.91,1.91,0,0,0,11.58,48.52Z" transform="translate(14.61 4.89)"/><path class="cls-3" d="M70.88,129.37a2,2,0,1,0,.05,0Z" transform="translate(14.61 4.89)"/><path class="cls-3" d="M54,129.37a1.94,1.94,0,1,0-.39,3.86h.23a1.94,1.94,0,1,0,.38-3.86Z" transform="translate(14.61 4.89)"/><path class="cls-3" d="M117.5,91.25a1.93,1.93,0,1,0,1.94,1.92h0a1.91,1.91,0,0,0-1.89-1.91Z" transform="translate(14.61 4.89)"/><path class="cls-3" d="M49.64,18.89a1.94,1.94,0,1,0-.22,0Z" transform="translate(14.61 4.89)"/><path class="cls-3" d="M37,23.07a1.93,1.93,0,1,0-1.9-2h0A1.92,1.92,0,0,0,37,23.07Z" transform="translate(14.61 4.89)"/><path class="cls-3" d="M87.83,23.07a1.93,1.93,0,1,0-1.93-1.93v0a1.91,1.91,0,0,0,1.93,1.91Z" transform="translate(14.61 4.89)"/><path class="cls-3" d="M7.34,91.25a1.93,1.93,0,1,0,1.94,1.92v0a1.92,1.92,0,0,0-1.94-1.9Z" transform="translate(14.61 4.89)"/><path class="cls-3" d="M75.12,18.89a1.89,1.89,0,1,0-.08,0Z" transform="translate(14.61 4.89)"/><path class="cls-3" d="M100.58,116.68a1.92,1.92,0,1,0-.33,3.83h.27a1.92,1.92,0,0,0,.33-3.83Z" transform="translate(14.61 4.89)"/><path class="cls-3" d="M24.28,116.68a1.92,1.92,0,1,0-.28,3.83h.28a1.92,1.92,0,0,0,.27-3.83A1.22,1.22,0,0,0,24.28,116.68Z" transform="translate(14.61 4.89)"/><path class="cls-3" d="M104.8,112.44a1.92,1.92,0,1,0-.28,3.83,1.31,1.31,0,0,0,.28,0,1.91,1.91,0,0,0,1.94-1.88v0a1.93,1.93,0,0,0-1.93-1.93Z" transform="translate(14.61 4.89)"/><path class="cls-3" d="M20.05,112.44a1.92,1.92,0,1,0,.27,0Z" transform="translate(14.61 4.89)"/><path class="cls-3" d="M109.09,108.21a1.91,1.91,0,1,0,1.86,2A1.92,1.92,0,0,0,109.09,108.21Z" transform="translate(14.61 4.89)"/><path class="cls-3" d="M15.88,108.21a1.91,1.91,0,1,0-.1,3.82h0a1.91,1.91,0,1,0,.1-3.82Z" transform="translate(14.61 4.89)"/><path class="cls-3" d="M3.12,70.08a1.89,1.89,0,1,0,.23,0,1.22,1.22,0,0,0-.27,0Z" transform="translate(14.61 4.89)"/><path class="cls-3" d="M121.73,70.08a1.91,1.91,0,1,0,.27,0A1.22,1.22,0,0,0,121.73,70.08Z" transform="translate(14.61 4.89)"/><path class="cls-3" d="M96.29,120.89a1.9,1.9,0,1,0,1.9,1.9A1.9,1.9,0,0,0,96.29,120.89Z" transform="translate(14.61 4.89)"/><path class="cls-3" d="M28.46,120.89a1.9,1.9,0,1,0,.09,3.8h0a1.9,1.9,0,0,0-.09-3.8Z" transform="translate(14.61 4.89)"/><path class="cls-3" d="M121.7,78.56a1.9,1.9,0,0,0,0,3.8h0a1.9,1.9,0,0,0,0-3.8Z" transform="translate(14.61 4.89)"/><path class="cls-3" d="M3.12,78.57A1.89,1.89,0,1,0,5,80.48,1.93,1.93,0,0,0,3.12,78.57Z" transform="translate(14.61 4.89)"/><path class="cls-3" d="M117.5,52.7a1.9,1.9,0,1,0,.27-3.79h-.27a1.9,1.9,0,0,0,0,3.79Z" transform="translate(14.61 4.89)"/><path class="cls-3" d="M7.35,52.7a1.9,1.9,0,0,0,0-3.79,1.9,1.9,0,0,0,0,3.79Z" transform="translate(14.61 4.89)"/><path class="cls-3" d="M79.39,129.41a1.9,1.9,0,1,0,1.73,1.79A1.91,1.91,0,0,0,79.39,129.41Z" transform="translate(14.61 4.89)"/><path class="cls-3" d="M45.44,129.41a1.9,1.9,0,1,0,1.78,1.73A1.9,1.9,0,0,0,45.44,129.41Z" transform="translate(14.61 4.89)"/><path class="cls-3" d="M113.24,104a1.89,1.89,0,1,0,1.89,1.89h0A1.91,1.91,0,0,0,113.24,104Z" transform="translate(14.61 4.89)"/><path class="cls-3" d="M11.58,104a1.89,1.89,0,1,0,1.86,1.92v0A1.9,1.9,0,0,0,11.58,104Z" transform="translate(14.61 4.89)"/><path class="cls-3" d="M3.08,65.4a1.89,1.89,0,1,0-1.85-1.93h0A1.89,1.89,0,0,0,3.08,65.4Z" transform="translate(14.61 4.89)"/><path class="cls-3" d="M121.73,65.4a1.89,1.89,0,1,0-1.87-1.91v.07A1.9,1.9,0,0,0,121.73,65.4Z" transform="translate(14.61 4.89)"/><path class="cls-3" d="M41.24,18.76a1.85,1.85,0,1,0,0-3.7h0a1.85,1.85,0,0,0,0,3.7Z" transform="translate(14.61 4.89)"/><path class="cls-3" d="M83.58,18.76a1.85,1.85,0,1,0-1.82-1.88A1.84,1.84,0,0,0,83.58,18.76Z" transform="translate(14.61 4.89)"/><path class="cls-3" d="M92.1,125.24A1.83,1.83,0,0,0,92,128.9h0a1.83,1.83,0,1,0,.06-3.66Z" transform="translate(14.61 4.89)"/><path class="cls-3" d="M32.73,125.24a1.83,1.83,0,1,0-.22,3.65,1.22,1.22,0,0,0,.27,0,1.83,1.83,0,0,0-.05-3.66h0Z" transform="translate(14.61 4.89)"/><path class="cls-3" d="M3.13,87.13a1.81,1.81,0,1,0,1.81,1.81A1.81,1.81,0,0,0,3.13,87.13Z" transform="translate(14.61 4.89)"/><path class="cls-3" d="M20.05,31.43a1.81,1.81,0,0,0,0-3.62h0a1.81,1.81,0,1,0,0,3.62Z" transform="translate(14.61 4.89)"/><path class="cls-3" d="M62.37,14.48a1.81,1.81,0,1,0,.27-3.61h-.27a1.81,1.81,0,0,0,0,3.61Z" transform="translate(14.61 4.89)"/><path class="cls-3" d="M104.79,31.43a1.81,1.81,0,0,0,0-3.62,1.81,1.81,0,1,0,0,3.62Z" transform="translate(14.61 4.89)"/><path class="cls-3" d="M121.76,87.13a1.81,1.81,0,1,0,0,3.62h0a1.81,1.81,0,0,0,0-3.62Z" transform="translate(14.61 4.89)"/><path class="cls-3" d="M109,35.65a1.8,1.8,0,1,0,.26-3.59,1.13,1.13,0,0,0-.26,0,1.8,1.8,0,0,0-.27,3.59Z" transform="translate(14.61 4.89)"/><path class="cls-3" d="M15.83,35.65a1.8,1.8,0,1,0,.26-3.59,1.13,1.13,0,0,0-.26,0,1.8,1.8,0,1,0-.27,3.59Z" transform="translate(14.61 4.89)"/><path class="cls-3" d="M70.9,14.46a1.79,1.79,0,0,0,.26-3.57H70.9a1.79,1.79,0,1,0-.27,3.57Z" transform="translate(14.61 4.89)"/><path class="cls-3" d="M100.58,27.17a1.79,1.79,0,1,0-1.79-1.79A1.79,1.79,0,0,0,100.58,27.17Z" transform="translate(14.61 4.89)"/><path class="cls-3" d="M24.26,27.17a1.79,1.79,0,1,0-1.77-1.81,1.79,1.79,0,0,0,1.77,1.81Z" transform="translate(14.61 4.89)"/><path class="cls-3" d="M53.92,14.46a1.79,1.79,0,1,0-1.77-1.81,1.79,1.79,0,0,0,1.77,1.81Z" transform="translate(14.61 4.89)"/><path class="cls-3" d="M117.47,99.89a1.79,1.79,0,1,0,1.82,1.76,1.79,1.79,0,0,0-1.82-1.76Z" transform="translate(14.61 4.89)"/><path class="cls-3" d="M7.33,99.89a1.79,1.79,0,1,0,1.81,1.78,1.79,1.79,0,0,0-1.81-1.78Z" transform="translate(14.61 4.89)"/><path class="cls-3" d="M58.2,133.76a1.78,1.78,0,1,0,0,3.56h0a1.78,1.78,0,0,0,0-3.56Z" transform="translate(14.61 4.89)"/><path class="cls-3" d="M66.65,133.76a1.78,1.78,0,1,0,1.8,1.77,1.78,1.78,0,0,0-1.8-1.77Z" transform="translate(14.61 4.89)"/><path class="cls-3" d="M113.25,39.89a1.78,1.78,0,0,0,.26-3.55,1.13,1.13,0,0,0-.26,0,1.78,1.78,0,0,0,0,3.55Z" transform="translate(14.61 4.89)"/><path class="cls-3" d="M11.51,39.89a1.79,1.79,0,1,0-1.75-1.82A1.79,1.79,0,0,0,11.51,39.89Z" transform="translate(14.61 4.89)"/><path class="cls-3" d="M121.75,56.81A1.77,1.77,0,1,0,120,55,1.77,1.77,0,0,0,121.75,56.81Z" transform="translate(14.61 4.89)"/><path class="cls-3" d="M3.11,56.81a1.77,1.77,0,1,0,0-3.54h0a1.77,1.77,0,0,0,0,3.54Z" transform="translate(14.61 4.89)"/><path class="cls-3" d="M28.51,22.89a1.76,1.76,0,0,0,0-3.52h0a1.76,1.76,0,0,0,0,3.52Z" transform="translate(14.61 4.89)"/><path class="cls-3" d="M96.31,22.89a1.76,1.76,0,0,0,0-3.52h0a1.76,1.76,0,0,0,0,3.52Z" transform="translate(14.61 4.89)"/><path class="cls-3" d="M87.81,129.55a1.76,1.76,0,1,0,.26,0A1.13,1.13,0,0,0,87.81,129.55Z" transform="translate(14.61 4.89)"/><path class="cls-3" d="M37,129.55a1.76,1.76,0,1,0,1.62,1.62A1.77,1.77,0,0,0,37,129.55Z" transform="translate(14.61 4.89)"/><path class="cls-3" d="M75.17,133.8a1.75,1.75,0,1,0-.27,3.49,1.22,1.22,0,0,0,.27,0,1.75,1.75,0,0,0,0-3.49Z" transform="translate(14.61 4.89)"/><path class="cls-3" d="M49.7,133.8A1.75,1.75,0,0,0,48,135.57h0a1.74,1.74,0,1,0,1.73-1.77Z" transform="translate(14.61 4.89)"/><path class="cls-3" d="M117.5,44.06a1.73,1.73,0,1,0-1.73-1.73A1.72,1.72,0,0,0,117.5,44.06Z" transform="translate(14.61 4.89)"/><path class="cls-3" d="M79.35,14.4a1.73,1.73,0,1,0-1.73-1.73A1.73,1.73,0,0,0,79.35,14.4Z" transform="translate(14.61 4.89)"/><path class="cls-3" d="M7.34,44.06a1.73,1.73,0,1,0-1.73-1.73A1.72,1.72,0,0,0,7.34,44.06Z" transform="translate(14.61 4.89)"/><path class="cls-3" d="M45.45,14.4a1.73,1.73,0,1,0-1.73-1.73A1.73,1.73,0,0,0,45.45,14.4Z" transform="translate(14.61 4.89)"/><path class="cls-3" d="M-1.16,74.52a1.72,1.72,0,0,0-1.69,1.73,1.74,1.74,0,0,0,1.73,1.69,1.7,1.7,0,0,0,1.7-1.71,1.71,1.71,0,0,0-1.7-1.71Z" transform="translate(14.61 4.89)"/><path class="cls-3" d="M126,74.52a1.72,1.72,0,0,0-1.72,1.7A1.74,1.74,0,0,0,126,77.94a1.71,1.71,0,0,0,0-3.42Z" transform="translate(14.61 4.89)"/><path class="cls-3" d="M121.69,95.72a1.69,1.69,0,1,0,0,3.38h0a1.69,1.69,0,0,0,0-3.38Z" transform="translate(14.61 4.89)"/><path class="cls-3" d="M126,69.44a1.67,1.67,0,0,0,1.7-1.64v0A1.66,1.66,0,0,0,126,66.07H126a1.69,1.69,0,1,0-.26,3.37A1.13,1.13,0,0,0,126,69.44Z" transform="translate(14.61 4.89)"/><path class="cls-3" d="M3.09,95.72a1.69,1.69,0,1,0,0,3.38h0a1.69,1.69,0,1,0,0-3.38Z" transform="translate(14.61 4.89)"/><path class="cls-3" d="M-1.11,69.44A1.68,1.68,0,0,0,.44,67.63a1.68,1.68,0,0,0-1.55-1.56,1.69,1.69,0,0,0-1.82,1.56,1.69,1.69,0,0,0,1.56,1.81A1.13,1.13,0,0,0-1.11,69.44Z" transform="translate(14.61 4.89)"/><path class="cls-3" d="M32.74,18.58a1.67,1.67,0,1,0-1.67-1.67A1.67,1.67,0,0,0,32.74,18.58Z" transform="translate(14.61 4.89)"/><path class="cls-3" d="M92,18.58a1.67,1.67,0,1,0-1.64-1.7A1.66,1.66,0,0,0,92,18.58Z" transform="translate(14.61 4.89)"/><path class="cls-3" d="M126,83.05a1.65,1.65,0,1,0,1.65,1.65A1.65,1.65,0,0,0,126,83.05Z" transform="translate(14.61 4.89)"/><path class="cls-3" d="M-1.11,83.05A1.65,1.65,0,0,0-2.76,84.7a1.65,1.65,0,0,0,1.65,1.65A1.65,1.65,0,0,0,.54,84.7,1.65,1.65,0,0,0-1.11,83.05Z" transform="translate(14.61 4.89)"/><path class="cls-3" d="M15.78,117a1.63,1.63,0,0,0-1.62,1.66v0A1.66,1.66,0,1,0,15.8,117Z" transform="translate(14.61 4.89)"/><path class="cls-3" d="M109,117a1.64,1.64,0,1,0,1.67,1.64A1.65,1.65,0,0,0,109,117Z" transform="translate(14.61 4.89)"/><path class="cls-3" d="M20.07,121.19a1.59,1.59,0,1,0,.09,0Z" transform="translate(14.61 4.89)"/><path class="cls-3" d="M104.82,121.19a1.64,1.64,0,1,0,1.62,1.67,1.63,1.63,0,0,0-1.62-1.67Z" transform="translate(14.61 4.89)"/><path class="cls-3" d="M11.58,112.73a1.63,1.63,0,0,0,0,3.26h0a1.63,1.63,0,1,0,0-3.26Z" transform="translate(14.61 4.89)"/><path class="cls-3" d="M113.25,112.73a1.63,1.63,0,1,0,1.63,1.63A1.63,1.63,0,0,0,113.25,112.73Z" transform="translate(14.61 4.89)"/><path class="cls-3" d="M-1.11,60.89A1.65,1.65,0,0,0,.5,59.26a1.67,1.67,0,0,0-1.7-1.62h0a1.63,1.63,0,0,0-1.46,1.79A1.63,1.63,0,0,0-1.11,60.89Z" transform="translate(14.61 4.89)"/><path class="cls-3" d="M126,60.89a1.63,1.63,0,0,0,.25-3.25H126a1.63,1.63,0,0,0,0,3.25Z" transform="translate(14.61 4.89)"/><path class="cls-3" d="M121.67,48.19A1.63,1.63,0,1,0,122,45h-.23a1.63,1.63,0,0,0-.09,3.25Z" transform="translate(14.61 4.89)"/><path class="cls-3" d="M3.07,48.19a1.63,1.63,0,1,0,.25-3.25H3.07a1.63,1.63,0,0,0,0,3.25Z" transform="translate(14.61 4.89)"/><path class="cls-3" d="M41.18,133.89a1.62,1.62,0,1,0,.07,3.24h0a1.62,1.62,0,0,0-.07-3.24Z" transform="translate(14.61 4.89)"/><path class="cls-3" d="M83.68,133.89a1.62,1.62,0,1,0,1.52,1.72A1.62,1.62,0,0,0,83.68,133.89Z" transform="translate(14.61 4.89)"/><path class="cls-3" d="M66.68,10.05a1.62,1.62,0,1,0,.25-3.23,1,1,0,0,0-.25,0,1.62,1.62,0,0,0,0,3.23Z" transform="translate(14.61 4.89)"/><path class="cls-3" d="M58.18,10.05a1.62,1.62,0,1,0,.25-3.23,1,1,0,0,0-.25,0,1.62,1.62,0,0,0,0,3.23Z" transform="translate(14.61 4.89)"/><path class="cls-3" d="M24.3,125.45a1.62,1.62,0,1,0,.25,0A1,1,0,0,0,24.3,125.45Z" transform="translate(14.61 4.89)"/><path class="cls-3" d="M100.58,125.45a1.62,1.62,0,1,0,1.59,1.65A1.65,1.65,0,0,0,100.58,125.45Z" transform="translate(14.61 4.89)"/><path class="cls-3" d="M7.36,108.52a1.6,1.6,0,1,0,1.56,1.67A1.63,1.63,0,0,0,7.36,108.52Z" transform="translate(14.61 4.89)"/><path class="cls-3" d="M117.48,108.52a1.6,1.6,0,1,0,1.6,1.62A1.64,1.64,0,0,0,117.48,108.52Z" transform="translate(14.61 4.89)"/><path class="cls-3" d="M62.41,138.18A1.6,1.6,0,1,0,64,139.81a1.61,1.61,0,0,0-1.59-1.63Z" transform="translate(14.61 4.89)"/><path class="cls-3" d="M87.81,14.25a1.58,1.58,0,1,0-1.58-1.58A1.58,1.58,0,0,0,87.81,14.25Z" transform="translate(14.61 4.89)"/><path class="cls-3" d="M37,14.25a1.58,1.58,0,1,0-1.58-1.58A1.58,1.58,0,0,0,37,14.25Z" transform="translate(14.61 4.89)"/><path class="cls-3" d="M125.92,91.62a1.56,1.56,0,1,0,.25,0A1,1,0,0,0,125.92,91.62Z" transform="translate(14.61 4.89)"/><path class="cls-3" d="M-1.14,91.62a1.56,1.56,0,0,0-1.68,1.43,1.56,1.56,0,0,0,1.43,1.68h.25A1.56,1.56,0,0,0,.54,93.3,1.57,1.57,0,0,0-.89,91.62,1,1,0,0,0-1.14,91.62Z" transform="translate(14.61 4.89)"/><path class="cls-3" d="M53.91,138.23a1.56,1.56,0,1,0-.25,3.11h.25a1.53,1.53,0,0,0,1.54-1.52v-.06A1.52,1.52,0,0,0,54,138.23Z" transform="translate(14.61 4.89)"/><path class="cls-3" d="M70.85,138.23a1.56,1.56,0,0,0,0,3.11,1.54,1.54,0,0,0,1.54-1.54v0a1.52,1.52,0,0,0-1.49-1.53Z" transform="translate(14.61 4.89)"/><path class="cls-3" d="M75.1,10a1.53,1.53,0,1,0,0-3.06h0a1.55,1.55,0,0,0-1.52,1.54A1.57,1.57,0,0,0,75.1,10Z" transform="translate(14.61 4.89)"/><path class="cls-3" d="M49.74,10a1.54,1.54,0,1,0-1.57-1.52A1.54,1.54,0,0,0,49.74,10h0Z" transform="translate(14.61 4.89)"/><path class="cls-3" d="M28.49,129.78A1.54,1.54,0,0,0,27,131.3a1.56,1.56,0,0,0,1.55,1.59h.07a1.53,1.53,0,1,0-.06-3.06Z" transform="translate(14.61 4.89)"/><path class="cls-3" d="M96.33,129.78a1.53,1.53,0,1,0,0,3.06h0a1.53,1.53,0,1,0,0-3.06Z" transform="translate(14.61 4.89)"/><path class="cls-3" d="M109,26.89a1.5,1.5,0,1,0-1.5-1.5A1.5,1.5,0,0,0,109,26.89Z" transform="translate(14.61 4.89)"/><path class="cls-3" d="M15.81,26.89a1.5,1.5,0,1,0-1.5-1.5A1.5,1.5,0,0,0,15.81,26.89Z" transform="translate(14.61 4.89)"/><path class="cls-3" d="M121.74,104.39a1.45,1.45,0,0,0-1.49,1.43.14.14,0,0,0,0,.09,1.45,1.45,0,0,0,1.44,1.46h0a1.49,1.49,0,0,0,1.51-1.47v0A1.53,1.53,0,0,0,121.74,104.39Z" transform="translate(14.61 4.89)"/><path class="cls-3" d="M113.26,31.11a1.5,1.5,0,1,0-1.5-1.5,1.5,1.5,0,0,0,1.5,1.5Z" transform="translate(14.61 4.89)"/><path class="cls-3" d="M11.58,31.11a1.5,1.5,0,1,0-1.5-1.5A1.5,1.5,0,0,0,11.58,31.11Z" transform="translate(14.61 4.89)"/><path class="cls-3" d="M3.11,104.39a1.5,1.5,0,1,0,1.5,1.5A1.5,1.5,0,0,0,3.11,104.39Z" transform="translate(14.61 4.89)"/><path class="cls-3" d="M-1.12,52.29a1.5,1.5,0,0,0,1.5-1.5,1.5,1.5,0,0,0-1.5-1.5,1.5,1.5,0,0,0-1.5,1.5A1.5,1.5,0,0,0-1.12,52.29Z" transform="translate(14.61 4.89)"/><path class="cls-3" d="M125.94,52.29a1.51,1.51,0,0,0,1.54-1.46v0A1.53,1.53,0,0,0,126,49.31a1.5,1.5,0,1,0-.06,3h0Z" transform="translate(14.61 4.89)"/><path class="cls-3" d="M104.79,22.63a1.5,1.5,0,1,0-1.5-1.5,1.5,1.5,0,0,0,1.5,1.5Z" transform="translate(14.61 4.89)"/><path class="cls-3" d="M20,22.63a1.5,1.5,0,1,0-1.5-1.5A1.5,1.5,0,0,0,20,22.63Z" transform="translate(14.61 4.89)"/><path class="cls-3" d="M-5.42,70.51A1.46,1.46,0,0,0-6.86,72h0a1.45,1.45,0,0,0,1.43,1.47h0A1.52,1.52,0,0,0-3.92,72h0A1.5,1.5,0,0,0-5.42,70.51Z" transform="translate(14.61 4.89)"/><path class="cls-3" d="M130.2,70.51a1.5,1.5,0,1,0,1.5,1.5A1.5,1.5,0,0,0,130.2,70.51Z" transform="translate(14.61 4.89)"/><path class="cls-3" d="M117.5,35.33A1.51,1.51,0,0,0,119,33.89a1.54,1.54,0,0,0-1.4-1.51,1.48,1.48,0,0,0,0,2.95Z" transform="translate(14.61 4.89)"/><path class="cls-3" d="M7.34,35.33a1.48,1.48,0,1,0-.25,0A1,1,0,0,0,7.34,35.33Z" transform="translate(14.61 4.89)"/><path class="cls-3" d="M130.19,79a1.47,1.47,0,0,0-1.44,1.5h0a1.44,1.44,0,0,0,1.5,1.39h0a1.47,1.47,0,0,0-.07-2.94Z" transform="translate(14.61 4.89)"/><path class="cls-3" d="M79.35,138.3a1.5,1.5,0,0,0,.06,3h0a1.5,1.5,0,1,0-.06-3Z" transform="translate(14.61 4.89)"/><path class="cls-3" d="M45.5,138.3a1.5,1.5,0,1,0,1.5,1.5A1.5,1.5,0,0,0,45.5,138.3Z" transform="translate(14.61 4.89)"/><path class="cls-3" d="M-5.36,79a1.47,1.47,0,0,0-1.46,1.41,1.47,1.47,0,0,0,1.4,1.48,1.5,1.5,0,0,0,1.51-1.37A1.51,1.51,0,0,0-5.36,79Z" transform="translate(14.61 4.89)"/><path class="cls-3" d="M-5.35,65a1.46,1.46,0,0,0,1.4-1.48,1.44,1.44,0,0,0-1.46-1.42h0a1.47,1.47,0,0,0-1.4,1.47A1.48,1.48,0,0,0-5.35,65Z" transform="translate(14.61 4.89)"/><path class="cls-3" d="M32.75,134.09a1.45,1.45,0,1,0,0,2.9h0a1.45,1.45,0,0,0,1.39-1.47A1.47,1.47,0,0,0,32.75,134.09Z" transform="translate(14.61 4.89)"/><path class="cls-3" d="M130.23,65a1.45,1.45,0,0,0,0-2.9,1.45,1.45,0,0,0,0,2.9Z" transform="translate(14.61 4.89)"/><path class="cls-3" d="M100.48,18.36a1.45,1.45,0,1,0-1.4-1.5A1.45,1.45,0,0,0,100.48,18.36Z" transform="translate(14.61 4.89)"/><path class="cls-3" d="M24.31,18.36a1.45,1.45,0,1,0-1.45-1.45,1.44,1.44,0,0,0,1.44,1.45Z" transform="translate(14.61 4.89)"/><path class="cls-3" d="M92.1,134.09a1.49,1.49,0,0,0-1.47,1.41A1.46,1.46,0,0,0,92,137a1.45,1.45,0,0,0,.09-2.9Z" transform="translate(14.61 4.89)"/><path class="cls-3" d="M83.58,9.89a1.44,1.44,0,1,0-1.44-1.44A1.44,1.44,0,0,0,83.58,9.89Z" transform="translate(14.61 4.89)"/><path class="cls-3" d="M41.21,9.89A1.43,1.43,0,1,0,39.9,8.58,1.43,1.43,0,0,0,41.21,9.89Z" transform="translate(14.61 4.89)"/><path class="cls-3" d="M121.71,39.47a1.38,1.38,0,0,0,.28-2.75h-.23a1.38,1.38,0,1,0-.28,2.75Z" transform="translate(14.61 4.89)"/><path class="cls-3" d="M3.12,39.47a1.38,1.38,0,0,0,.23-2.75H3.12A1.39,1.39,0,0,0,1.62,38a1.38,1.38,0,0,0,1.26,1.49Z" transform="translate(14.61 4.89)"/><path class="cls-3" d="M130.16,87.58a1.36,1.36,0,0,0,.12,2.72,1.36,1.36,0,0,0-.11-2.72Z" transform="translate(14.61 4.89)"/><path class="cls-3" d="M-1.17,100.29a1.36,1.36,0,0,0-1.36,1.36A1.36,1.36,0,0,0-1.17,103a1.36,1.36,0,0,0,1.36-1.36A1.36,1.36,0,0,0-1.17,100.29Z" transform="translate(14.61 4.89)"/><path class="cls-3" d="M126,100.29a1.35,1.35,0,1,0,.06,0Z" transform="translate(14.61 4.89)"/><path class="cls-3" d="M-5.42,87.58a1.35,1.35,0,0,0-1.33,1.31A1.36,1.36,0,0,0-5.44,90.3h.07A1.35,1.35,0,0,0-4,89v-.08a1.34,1.34,0,0,0-1.37-1.31Z" transform="translate(14.61 4.89)"/><path class="cls-3" d="M62.44,5.55a1.35,1.35,0,0,0,.37-2.67,1.14,1.14,0,0,0-.45,0,1.35,1.35,0,0,0,.08,2.7Z" transform="translate(14.61 4.89)"/><path class="cls-3" d="M96.3,14a1.34,1.34,0,1,0,0-2.68A1.32,1.32,0,0,0,95,12.65h0A1.3,1.3,0,0,0,96.23,14Z" transform="translate(14.61 4.89)"/><path class="cls-3" d="M28.58,14a1.36,1.36,0,0,0,1.34-1.35,1.38,1.38,0,0,0-1.37-1.33,1.34,1.34,0,0,0,0,2.68Z" transform="translate(14.61 4.89)"/><path class="cls-3" d="M70.89,5.53a1.33,1.33,0,0,0,0-2.66h0a1.33,1.33,0,1,0,0,2.66Z" transform="translate(14.61 4.89)"/><path class="cls-3" d="M53.92,5.53a1.33,1.33,0,0,0,0-2.66h0a1.33,1.33,0,1,0,0,2.66Z" transform="translate(14.61 4.89)"/><path class="cls-3" d="M58.24,142.68a1.34,1.34,0,0,0-1.38,1.3v0a1.31,1.31,0,0,0,1.26,1.34,1.36,1.36,0,0,0,1.39-1.3A1.39,1.39,0,0,0,58.24,142.68Z" transform="translate(14.61 4.89)"/><path class="cls-3" d="M66.58,142.68a1.33,1.33,0,0,0,.09,2.66h0A1.37,1.37,0,0,0,68,144,1.39,1.39,0,0,0,66.58,142.68Z" transform="translate(14.61 4.89)"/><path class="cls-3" d="M130.25,56.36a1.32,1.32,0,0,0-.06-2.64,1.32,1.32,0,0,0,0,2.64Z" transform="translate(14.61 4.89)"/><path class="cls-3" d="M-5.33,56.36A1.35,1.35,0,0,0-4.06,55a1.37,1.37,0,0,0-1.36-1.29A1.32,1.32,0,0,0-6.71,55,1.32,1.32,0,0,0-5.4,56.36Z" transform="translate(14.61 4.89)"/><path class="cls-3" d="M87.84,138.48a1.3,1.3,0,1,0,1.3,1.3A1.3,1.3,0,0,0,87.84,138.48Z" transform="translate(14.61 4.89)"/><path class="cls-3" d="M37,138.48a1.3,1.3,0,1,0,0,2.6h0a1.3,1.3,0,0,0,0-2.6Z" transform="translate(14.61 4.89)"/><path class="cls-3" d="M113.23,121.53a1.3,1.3,0,0,0,0,2.6,1.3,1.3,0,1,0,0-2.6h0Z" transform="translate(14.61 4.89)"/><path class="cls-3" d="M11.58,121.53a1.3,1.3,0,1,0,1.27,1.33A1.3,1.3,0,0,0,11.58,121.53Z" transform="translate(14.61 4.89)"/><path class="cls-3" d="M109,125.77a1.3,1.3,0,0,0,0,2.6h0a1.3,1.3,0,0,0,0-2.6Z" transform="translate(14.61 4.89)"/><path class="cls-3" d="M15.82,125.77a1.33,1.33,0,1,0,.22,0Z" transform="translate(14.61 4.89)"/><path class="cls-3" d="M-1.11,43.61A1.27,1.27,0,0,0,.12,42.32v0a1.23,1.23,0,0,0-1.24-1.2h0a1.27,1.27,0,0,0-1.26,1.25A1.32,1.32,0,0,0-1.11,43.61Z" transform="translate(14.61 4.89)"/><path class="cls-3" d="M126,43.6a1.27,1.27,0,1,0-1.27-1.27A1.27,1.27,0,0,0,126,43.6Z" transform="translate(14.61 4.89)"/><path class="cls-3" d="M117.49,117.33a1.27,1.27,0,1,0,1.26,1.3,1.25,1.25,0,0,0-1.18-1.3Z" transform="translate(14.61 4.89)"/><path class="cls-3" d="M7.33,117.33a1.28,1.28,0,0,0-1.28,1.23,1.31,1.31,0,0,0,1.29,1.33h0a1.27,1.27,0,1,0,0-2.54Z" transform="translate(14.61 4.89)"/><path class="cls-3" d="M49.74,142.8a1.22,1.22,0,0,0-.3,2.42h.2a1.22,1.22,0,1,0,.29-2.42Z" transform="translate(14.61 4.89)"/><path class="cls-3" d="M75.12,142.8a1.21,1.21,0,1,0,.07,0Z" transform="translate(14.61 4.89)"/><path class="cls-3" d="M104.85,130.09a1.22,1.22,0,0,0-.1,2.44,1.23,1.23,0,0,0,1.27-1.17v0A1.22,1.22,0,0,0,104.85,130.09Z" transform="translate(14.61 4.89)"/><path class="cls-3" d="M20,130.09a1.22,1.22,0,1,0-.05,2.44h.18a1.19,1.19,0,0,0,1.17-1.21v0a1.21,1.21,0,0,0-1.23-1.19Z" transform="translate(14.61 4.89)"/><path class="cls-3" d="M45.48,5.41A1.21,1.21,0,0,0,45.42,3a1.21,1.21,0,1,0,.06,2.42Z" transform="translate(14.61 4.89)"/><path class="cls-3" d="M79.38,5.41A1.21,1.21,0,1,0,79.32,3h0a1.21,1.21,0,0,0,.06,2.42Z" transform="translate(14.61 4.89)"/><path class="cls-3" d="M130.22,96.21a1.2,1.2,0,1,0,1.2,1.2A1.2,1.2,0,0,0,130.22,96.21Z" transform="translate(14.61 4.89)"/><path class="cls-3" d="M121.75,113.16a1.19,1.19,0,0,0-1.21,1.17v0a1.16,1.16,0,0,0,1.15,1.19h.06a1.2,1.2,0,0,0,.22-2.39Z" transform="translate(14.61 4.89)"/><path class="cls-3" d="M32.76,9.63A1.2,1.2,0,0,0,33,7.24h-.22a1.2,1.2,0,0,0,0,2.39Z" transform="translate(14.61 4.89)"/><path class="cls-3" d="M92,9.63a1.2,1.2,0,1,0,.28-2.38h-.2A1.2,1.2,0,0,0,92,9.63Z" transform="translate(14.61 4.89)"/><path class="cls-3" d="M-5.42,96.21a1.17,1.17,0,0,0-1.14,1.2,1.17,1.17,0,0,0,1.16,1.2h.05a1.23,1.23,0,0,0,1.19-1.23A1.24,1.24,0,0,0-5.42,96.21Z" transform="translate(14.61 4.89)"/><path class="cls-3" d="M3.06,113.16a1.2,1.2,0,1,0,.22,0Z" transform="translate(14.61 4.89)"/><path class="cls-3" d="M134.49,75a1.19,1.19,0,0,0-.1,2.37,1.19,1.19,0,0,0,.29-2.36Z" transform="translate(14.61 4.89)"/><path class="cls-3" d="M-9.65,75a1.19,1.19,0,0,0-1.14,1.19,1.18,1.18,0,0,0,1.15,1.18,1.24,1.24,0,0,0,1.22-1.19A1.23,1.23,0,0,0-9.65,75Z" transform="translate(14.61 4.89)"/><path class="cls-3" d="M134.46,68.89a1.18,1.18,0,1,0-1.18-1.18v0A1.2,1.2,0,0,0,134.46,68.89Z" transform="translate(14.61 4.89)"/><path class="cls-3" d="M-9.61,68.89a1.2,1.2,0,0,0,1.19-1.14,1.2,1.2,0,0,0-1.16-1.17,1.2,1.2,0,0,0-1.17,1.18A1.21,1.21,0,0,0-9.61,68.89Z" transform="translate(14.61 4.89)"/><path class="cls-3" d="M100.58,134.39a1.18,1.18,0,0,0-1.17,1.17,1.19,1.19,0,0,0,1.14,1.14,1.16,1.16,0,0,0,0-2.31Z" transform="translate(14.61 4.89)"/><path class="cls-3" d="M24.25,134.39a1.16,1.16,0,0,0-.14,2.32h.21a1.16,1.16,0,0,0,1-1.29A1.15,1.15,0,0,0,24.25,134.39Z" transform="translate(14.61 4.89)"/><path class="cls-3" d="M-9.6,83.59a1.13,1.13,0,0,0-1.15,1.1,1.14,1.14,0,0,0,1.13,1.12A1.09,1.09,0,0,0-8.5,84.75v0a1.1,1.1,0,0,0-1.06-1.12Z" transform="translate(14.61 4.89)"/><path class="cls-3" d="M134.45,83.59a1.11,1.11,0,1,0,1.13,1.17V84.7a1.07,1.07,0,0,0-1-1.11Z" transform="translate(14.61 4.89)"/><path class="cls-3" d="M-5.42,47.65a1.07,1.07,0,0,0,1.14-1,.09.09,0,0,0,0,0,1.08,1.08,0,0,0-1-1.1,1.08,1.08,0,0,0-1.16,1v.06A1.07,1.07,0,0,0-5.42,47.65Z" transform="translate(14.61 4.89)"/><path class="cls-3" d="M130.24,47.65a1.08,1.08,0,1,0-1.08-1.08,1.08,1.08,0,0,0,1.08,1.08Z" transform="translate(14.61 4.89)"/><path class="cls-3" d="M-1.1,109.05a1.07,1.07,0,0,0-1.07,1.07,1.06,1.06,0,0,0,1.06,1.07h0A1.07,1.07,0,0,0,0,110.12,1.08,1.08,0,0,0-1.1,109.05Z" transform="translate(14.61 4.89)"/><path class="cls-3" d="M126,109.05a1.07,1.07,0,0,0-1.07,1.07,1.06,1.06,0,0,0,1.06,1.07h0a1.07,1.07,0,0,0,0-2.14Z" transform="translate(14.61 4.89)"/><path class="cls-3" d="M11.58,22.22a1.07,1.07,0,0,0,0-2.14h0a1.07,1.07,0,1,0,0,2.14Z" transform="translate(14.61 4.89)"/><path class="cls-3" d="M113.25,22.22a1.08,1.08,0,0,0,1.1-1.06V21.1a1.09,1.09,0,1,0-1.11,1.14Z" transform="translate(14.61 4.89)"/><path class="cls-3" d="M41.25,143a1.07,1.07,0,0,0-1,1.14,1.06,1.06,0,0,0,.94,1,1.07,1.07,0,1,0,.25-2.12Z" transform="translate(14.61 4.89)"/><path class="cls-3" d="M117.5,26.45a1.08,1.08,0,0,0,1-1.17,1.07,1.07,0,1,0-1.17,1.17A.74.74,0,0,0,117.5,26.45Z" transform="translate(14.61 4.89)"/><path class="cls-3" d="M7.33,26.45a1.07,1.07,0,0,0,.06-2.13,1.07,1.07,0,0,0-1.19.93,1.06,1.06,0,0,0,.93,1.19Z" transform="translate(14.61 4.89)"/><path class="cls-3" d="M83.58,143a1.07,1.07,0,1,0-.21,2.13h.21A1.06,1.06,0,0,0,84.64,144v0A1.09,1.09,0,0,0,83.58,143Z" transform="translate(14.61 4.89)"/><path class="cls-3" d="M109,18A1.06,1.06,0,1,0,108,16.91,1.06,1.06,0,0,0,109,18Z" transform="translate(14.61 4.89)"/><path class="cls-3" d="M134.38,60.34a1.06,1.06,0,0,0,.1-2.12,1.06,1.06,0,0,0-.1,2.12Z" transform="translate(14.61 4.89)"/><path class="cls-3" d="M-9.61,60.34a1.09,1.09,0,0,0,1.08-1.07,1.11,1.11,0,0,0-1.11-1,1,1,0,0,0-1,1,.49.49,0,0,0,0,.12A1,1,0,0,0-9.61,60.34Z" transform="translate(14.61 4.89)"/><path class="cls-3" d="M15.83,18a1.06,1.06,0,1,0,.33-2.09,1.08,1.08,0,0,0-.4,0,1.06,1.06,0,0,0-1,1.06A1,1,0,0,0,15.83,18Z" transform="translate(14.61 4.89)"/><path class="cls-3" d="M121.74,30.65a1,1,0,1,0-.07-2.06,1,1,0,0,0,.06,2.06Z" transform="translate(14.61 4.89)"/><path class="cls-3" d="M66.66,1a1,1,0,0,0,1-1,1,1,0,0,0-1-1,1,1,0,0,0-1,1A1.06,1.06,0,0,0,66.66,1Z" transform="translate(14.61 4.89)"/><path class="cls-3" d="M58.18,1a1.08,1.08,0,0,0,1-1.06,1,1,0,0,0-1-1,1,1,0,0,0-1,1A1,1,0,0,0,58.18,1Z" transform="translate(14.61 4.89)"/><path class="cls-3" d="M3.08,30.65a1,1,0,1,0-1-1A1,1,0,0,0,3.08,30.65Z" transform="translate(14.61 4.89)"/><path class="cls-3" d="M87.87,5.2a1,1,0,1,0-1-1A1,1,0,0,0,87.87,5.2Z" transform="translate(14.61 4.89)"/><path class="cls-3" d="M28.58,138.78a1,1,0,1,0,1,1A1,1,0,0,0,28.58,138.78Z" transform="translate(14.61 4.89)"/><path class="cls-3" d="M96.31,138.78a1,1,0,0,0-1,1s0,0,0,.05a1,1,0,1,0,1-1.05Z" transform="translate(14.61 4.89)"/><path class="cls-3" d="M37,5.2a1,1,0,1,0-1-1A1,1,0,0,0,37,5.2Z" transform="translate(14.61 4.89)"/><path class="cls-3" d="M104.79,13.63a.93.93,0,0,0,1-.85v-.15a.93.93,0,0,0-.91-.93h0a1,1,0,1,0,0,1.91Z" transform="translate(14.61 4.89)"/><path class="cls-3" d="M20.06,13.63a1,1,0,1,0,.53-1.93,1,1,0,0,0-.59,0,1,1,0,1,0,.06,1.91Z" transform="translate(14.61 4.89)"/><path class="cls-3" d="M62.37,147.3a1,1,0,1,0,1.29,1.21,1,1,0,0,0-.7-1.23A1,1,0,0,0,62.37,147.3Z" transform="translate(14.61 4.89)"/><path class="cls-3" d="M134.45,92.24a.94.94,0,0,0-.24,1.87h.19a.94.94,0,0,0,1-.81,1,1,0,0,0-.82-1.06Z" transform="translate(14.61 4.89)"/><path class="cls-3" d="M-9.57,92.24a1,1,0,0,0-1,.94,1,1,0,0,0,1,.93.92.92,0,0,0,1-.86.07.07,0,0,0,0,0,.92.92,0,0,0-.88-1Z" transform="translate(14.61 4.89)"/><path class="cls-3" d="M49.65.89a1,1,0,0,0,1-.87,1,1,0,0,0-.91-1,.93.93,0,0,0-1,.89.93.93,0,0,0,.89,1Z" transform="translate(14.61 4.89)"/><path class="cls-3" d="M130.21,105a.92.92,0,0,0,0,1.83.92.92,0,0,0,.19-1.83A.6.6,0,0,0,130.21,105Z" transform="translate(14.61 4.89)"/><path class="cls-3" d="M75.08.89a.92.92,0,0,0,1-.86V0a.94.94,0,0,0-.92-.95.92.92,0,0,0-1,.88A.91.91,0,0,0,75.08.89Z" transform="translate(14.61 4.89)"/><path class="cls-3" d="M54,147.34a.88.88,0,0,0-1,.75v.06a.89.89,0,0,0,.77,1h0a1,1,0,0,0,1-.85A.94.94,0,0,0,54,147.34Z" transform="translate(14.61 4.89)"/><path class="cls-3" d="M70.92,147.33a.9.9,0,0,0-.94.86v.05a.88.88,0,0,0,.84.93h0a.92.92,0,1,0,.09-1.84Z" transform="translate(14.61 4.89)"/><path class="cls-3" d="M-5.42,105a.87.87,0,0,0-.89.85v0a.88.88,0,0,0,.77,1h.12a.94.94,0,0,0,1-.88.22.22,0,0,0,0-.08.94.94,0,0,0-1-.92Z" transform="translate(14.61 4.89)"/><path class="cls-3" d="M126,34.77a.91.91,0,0,0-.08-1.82.91.91,0,0,0,.08,1.82Z" transform="translate(14.61 4.89)"/><path class="cls-3" d="M-1.17,34.77a.91.91,0,0,0,.91-.91A.91.91,0,0,0-1.17,33h0a.89.89,0,0,0-.89.89.88.88,0,0,0,.85.93Z" transform="translate(14.61 4.89)"/><path class="cls-3" d="M134.41,51.66a.86.86,0,0,0,.8-.92.87.87,0,0,0-.74-.79.86.86,0,1,0-.24,1.7Z" transform="translate(14.61 4.89)"/><path class="cls-3" d="M-9.61,51.65a.83.83,0,0,0,.84-.82v0A.83.83,0,0,0-9.56,50h0a.88.88,0,0,0-.86.84A.87.87,0,0,0-9.61,51.65Z" transform="translate(14.61 4.89)"/><path class="cls-3" d="M100.51,9.28a.81.81,0,0,0,.86-.75.13.13,0,0,0,0-.06.83.83,0,0,0-.76-.88h0a.85.85,0,1,0-.24,1.68Z" transform="translate(14.61 4.89)"/><path class="cls-3" d="M24.25,9.28a.87.87,0,1,0-.17,0Z" transform="translate(14.61 4.89)"/><path class="cls-3" d="M32.76,143.23a.79.79,0,1,0,.17,0Z" transform="translate(14.61 4.89)"/><path class="cls-3" d="M92.07,143.23a.79.79,0,1,0,.17,0Z" transform="translate(14.61 4.89)"/><path class="cls-3" d="M138.67,72.76a.77.77,0,1,0-.77-.77A.77.77,0,0,0,138.67,72.76Z" transform="translate(14.61 4.89)"/><path class="cls-3" d="M-13.84,71.22a.75.75,0,0,0-.77.75h0a.75.75,0,0,0,.72.79.8.8,0,0,0,.83-.77h0A.8.8,0,0,0-13.84,71.22Z" transform="translate(14.61 4.89)"/><path class="cls-3" d="M79.35,147.48a.77.77,0,1,0,.77.77.77.77,0,0,0-.77-.77Z" transform="translate(14.61 4.89)"/><path class="cls-3" d="M45.44,147.48a.76.76,0,0,0-.73.79.75.75,0,0,0,.76.75.8.8,0,0,0,.78-.82h0A.82.82,0,0,0,45.44,147.48Z" transform="translate(14.61 4.89)"/><path class="cls-3" d="M138.7,79.71a.78.78,0,0,0-.76.68.78.78,0,0,0,.69.83.79.79,0,0,0,.8-.72A.81.81,0,0,0,138.7,79.71Z" transform="translate(14.61 4.89)"/><path class="cls-3" d="M7.35,126.31a.79.79,0,0,0-.76.77.75.75,0,1,0,1.49,0A.8.8,0,0,0,7.35,126.31Z" transform="translate(14.61 4.89)"/><path class="cls-3" d="M130.22,38.89a.76.76,0,0,0,0-1.52.77.77,0,0,0-.77.75.22.22,0,0,0,0,.08A.78.78,0,0,0,130.22,38.89Z" transform="translate(14.61 4.89)"/><path class="cls-3" d="M-13.87,79.71a.77.77,0,0,0-.72.73.79.79,0,0,0,.73.78.8.8,0,0,0,.76-.76A.79.79,0,0,0-13.87,79.71Z" transform="translate(14.61 4.89)"/><path class="cls-3" d="M117.47,126.31a.79.79,0,0,0-.72.73.74.74,0,0,0,.65.83.76.76,0,0,0,.84-.66V127A.79.79,0,0,0,117.47,126.31Z" transform="translate(14.61 4.89)"/><path class="cls-3" d="M113.26,130.55a.76.76,0,1,0,.66.67A.76.76,0,0,0,113.26,130.55Z" transform="translate(14.61 4.89)"/><path class="cls-3" d="M-5.42,38.89a.77.77,0,0,0,.77-.75.79.79,0,0,0-.72-.75.77.77,0,0,0-.76.76A.76.76,0,0,0-5.42,38.89Z" transform="translate(14.61 4.89)"/><path class="cls-3" d="M11.58,130.55a.79.79,0,0,0-.76.77.78.78,0,0,0,.72.73.76.76,0,0,0,.76-.76A.79.79,0,0,0,11.58,130.55Z" transform="translate(14.61 4.89)"/><path class="cls-3" d="M41.19.68a.71.71,0,0,0,.67-.76.71.71,0,0,0-.6-.67.77.77,0,0,0-.75.68A.74.74,0,0,0,41.19.68Z" transform="translate(14.61 4.89)"/><path class="cls-3" d="M83.63.68a.73.73,0,0,0,.67-.79h0a.72.72,0,0,0-.72-.63A.73.73,0,0,0,82.9,0,.77.77,0,0,0,83.63.68Z" transform="translate(14.61 4.89)"/><path class="cls-3" d="M-13.89,64.22a.71.71,0,0,0,.74-.66v0a.7.7,0,0,0-.66-.72h0a.73.73,0,0,0-.72.71A.73.73,0,0,0-13.89,64.22Z" transform="translate(14.61 4.89)"/><path class="cls-3" d="M3.1,122.13a.72.72,0,0,0-.72.72.76.76,0,0,0,.68.69.71.71,0,0,0,.74-.68h0a.7.7,0,0,0-.66-.72Z" transform="translate(14.61 4.89)"/><path class="cls-3" d="M138.68,64.23a.71.71,0,0,0,0-1.42h0a.71.71,0,0,0-.71.71.7.7,0,0,0,.7.71h0Z" transform="translate(14.61 4.89)"/><path class="cls-3" d="M121.72,122.13a.72.72,0,0,0-.71.73.76.76,0,0,0,.76.68.71.71,0,0,0,0-1.41Z" transform="translate(14.61 4.89)"/><path class="cls-3" d="M-9.62,101a.66.66,0,0,0-.68.64h0a.67.67,0,0,0,.69.65h0a.63.63,0,0,0,.66-.58v-.08a.63.63,0,0,0-.62-.64Z" transform="translate(14.61 4.89)"/><path class="cls-3" d="M134.43,101a.65.65,0,0,0-.67.63v0a.66.66,0,0,0,.67.64h0a.65.65,0,1,0,0-1.3Z" transform="translate(14.61 4.89)"/><path class="cls-3" d="M15.82,134.89a.67.67,0,0,0-.69.65h0a.65.65,0,0,0,.67.65h0a.65.65,0,0,0,0-1.3Z" transform="translate(14.61 4.89)"/><path class="cls-3" d="M109,134.89a.67.67,0,0,0-.69.65h0a.65.65,0,0,0,.67.65h0a.65.65,0,0,0,0-1.3Z" transform="translate(14.61 4.89)"/><path class="cls-3" d="M28.47,4.83a.63.63,0,0,0,.7-.57s0,0,0,0a.67.67,0,0,0-.66-.66h0a.63.63,0,0,0-.63.62.6.6,0,0,0,.56.65Z" transform="translate(14.61 4.89)"/><path class="cls-3" d="M96.35,4.83A.64.64,0,0,0,97,4.21a.67.67,0,0,0-.67-.65h0a.63.63,0,0,0-.62.64h0a.61.61,0,0,0,.6.63Z" transform="translate(14.61 4.89)"/><path class="cls-3" d="M138.64,88.31a.61.61,0,0,0-.59.62v0a.61.61,0,0,0,.63.61h0a.63.63,0,0,0-.05-1.26Z" transform="translate(14.61 4.89)"/><path class="cls-3" d="M126,118a.63.63,0,0,0-.61.57.62.62,0,0,0,.56.67h0a.66.66,0,0,0,.66-.6A.69.69,0,0,0,126,118Z" transform="translate(14.61 4.89)"/><path class="cls-3" d="M-1.19,118a.62.62,0,0,0-.55.68.64.64,0,0,0,.62.56.68.68,0,0,0,.61-.66A.67.67,0,0,0-1.19,118Z" transform="translate(14.61 4.89)"/><path class="cls-3" d="M-13.83,88.32a.63.63,0,0,0-.63.62.61.61,0,0,0,.56.61.67.67,0,0,0,.68-.58A.69.69,0,0,0-13.83,88.32Z" transform="translate(14.61 4.89)"/><path class="cls-3" d="M62.38-3.66A.65.65,0,0,0,63-4.21a.65.65,0,0,0-.56-.68.64.64,0,0,0-.63.55.62.62,0,0,0,.55.68Z" transform="translate(14.61 4.89)"/><path class="cls-3" d="M104.75,139.23a.6.6,0,0,0-.54.55.62.62,0,0,0,.61.56.56.56,0,0,0,.52-.56.54.54,0,0,0-.53-.55Z" transform="translate(14.61 4.89)"/><path class="cls-3" d="M20.06,139.23a.55.55,0,0,0,0,1.1.55.55,0,1,0,0-1.1Z" transform="translate(14.61 4.89)"/><path class="cls-3" d="M70.86-3.76a.5.5,0,0,0,.55-.44v0A.52.52,0,0,0,71-4.79h0a.54.54,0,0,0-.57.49.52.52,0,0,0,.5.54Z" transform="translate(14.61 4.89)"/><path class="cls-3" d="M138.65,55.55a.49.49,0,0,0,.55-.41s0,0,0-.07a.5.5,0,0,0-.46-.54h0a.53.53,0,0,0-.57.48.51.51,0,0,0,.48.54Z" transform="translate(14.61 4.89)"/><path class="cls-3" d="M-13.85,55.55a.49.49,0,0,0,.53-.46.09.09,0,0,0,0-.05.51.51,0,0,0-.51-.51h0a.53.53,0,0,0-.54.51A.53.53,0,0,0-13.85,55.55Z" transform="translate(14.61 4.89)"/><path class="cls-3" d="M134.42,42.89a.51.51,0,0,0,.6-.4.52.52,0,0,0-.4-.6h-.2a.5.5,0,0,0-.52.49.09.09,0,0,0,0,0,.48.48,0,0,0,.49.46Z" transform="translate(14.61 4.89)"/><path class="cls-3" d="M-9.61,42.89a.5.5,0,0,0,.53-.47v-.06a.51.51,0,0,0-.53-.49h0a.52.52,0,0,0-.5.5.52.52,0,0,0,.52.52Z" transform="translate(14.61 4.89)"/><path class="cls-3" d="M53.91-3.76a.5.5,0,0,0,.55-.44v0A.52.52,0,0,0,54-4.79H54a.54.54,0,0,0-.57.49.52.52,0,0,0,.5.54Z" transform="translate(14.61 4.89)"/><path class="cls-3" d="M37,147.75a.5.5,0,0,0-.49.49.52.52,0,0,0,.52.52h0a.5.5,0,0,0,.57-.43.51.51,0,0,0-.43-.58.41.41,0,0,0-.19,0Z" transform="translate(14.61 4.89)"/><path class="cls-3" d="M87.81,147.75a.5.5,0,0,0-.51.48.17.17,0,0,0,0,.07.48.48,0,0,0,.49.46h0a.51.51,0,0,0,.6-.4.52.52,0,0,0-.4-.6h-.22Z" transform="translate(14.61 4.89)"/><path class="cls-3" d="M58.14,152a.49.49,0,0,0-.48.5h0a.47.47,0,0,0,.47.49h0a.49.49,0,0,0,.55-.41s0,0,0-.08a.51.51,0,0,0-.52-.5Z" transform="translate(14.61 4.89)"/><path class="cls-3" d="M49.66,152a.5.5,0,0,0-.49.5.47.47,0,0,0,.47.49h0a.49.49,0,0,0,.55-.41s0,0,0-.08a.52.52,0,0,0-.54-.5Z" transform="translate(14.61 4.89)"/><path class="cls-3" d="M66.67,152a.5.5,0,0,0-.54.46v.06a.46.46,0,0,0,.46.47h0a.49.49,0,0,0,.53-.46.09.09,0,0,0,0-.05A.51.51,0,0,0,66.67,152Z" transform="translate(14.61 4.89)"/><path class="cls-3" d="M75.15,152a.49.49,0,0,0-.53.45.09.09,0,0,0,0,.07.47.47,0,0,0,.47.47h0a.5.5,0,0,0,0-1Z" transform="translate(14.61 4.89)"/></g></svg>